<?xml version="1.0" encoding="UTF-8"?>
<svg version="1.1" xmlns="http://www.w3.org/2000/svg" width="364" height="320">
<path d="M0 0 C120.12 0 240.24 0 364 0 C364 105.6 364 211.2 364 320 C243.88 320 123.76 320 0 320 C0 214.4 0 108.8 0 0 Z " fill="#FDFDFD" transform="translate(0,0)"/>
<path d="M0 0 C1.31703415 0.00081573 1.31703415 0.00081573 2.66067505 0.00164795 C29.87772486 0.07819753 56.24937433 3.29167062 82.5625 10.375 C83.25939941 10.55530762 83.95629883 10.73561523 84.67431641 10.92138672 C93.80911181 13.30237996 102.15189488 17.18156768 110.5625 21.375 C111.48699951 21.82335205 111.48699951 21.82335205 112.43017578 22.28076172 C126.73921942 29.24507382 141.72981867 38.96676148 152.0625 51.25 C154.54961571 54.20158342 154.54961571 54.20158342 157.171875 57.03125 C186.58650809 87.8465799 195.70964357 137.21437524 195.73046875 178.19140625 C195.73369127 179.69872569 195.73705604 181.20604483 195.74055481 182.71336365 C195.74650211 185.85408249 195.74839909 188.99477398 195.74780273 192.13549805 C195.74770092 196.13512874 195.76139276 200.1345827 195.77857494 204.13417149 C195.78975398 207.24078662 195.7917202 210.34735966 195.79119301 213.45399284 C195.79236271 214.92780101 195.79672681 216.40161064 195.80452538 217.87539864 C195.89937783 237.63599548 195.89937783 237.63599548 191.6875 244.375 C188.43396493 247.43715066 186.68071102 248.27146194 182.1875 248.6875 C176.95741649 248.23663073 173.93109729 246.89983978 170.41113281 242.97802734 C167.47026053 238.34896686 168.06894063 233.15017197 168.171875 227.8515625 C168.17753479 226.75024994 168.18319458 225.64893738 168.18902588 224.51425171 C168.21135258 221.00905237 168.26154428 217.50488854 168.3125 214 C168.33256969 211.61850438 168.35081964 209.23699269 168.3671875 206.85546875 C168.41120526 201.02829465 168.47808112 195.20172132 168.5625 189.375 C167.99722595 189.49486267 167.4319519 189.61472534 166.84954834 189.73822021 C164.25003482 190.28539885 161.64852287 190.82244013 159.046875 191.359375 C157.71342041 191.64240479 157.71342041 191.64240479 156.35302734 191.93115234 C149.30727078 193.37394731 142.76092519 193.84788925 135.5625 193.375 C135.80262817 194.19218506 135.80262817 194.19218506 136.04760742 195.02587891 C138.98154727 208.41154471 137.60749015 224.71888284 132.5625 237.375 C132.26214844 238.27863281 131.96179688 239.18226563 131.65234375 240.11328125 C129.41520828 246.49541232 126.00418966 251.31772435 121.5625 256.375 C121.05074219 256.98085938 120.53898437 257.58671875 120.01171875 258.2109375 C112.29321476 266.67639349 101.49926517 272.32390783 90.5625 275.375 C89.50289063 275.67277344 88.44328125 275.97054688 87.3515625 276.27734375 C66.24350818 281.33302564 40.6082368 280.31827725 21.4375 269.6875 C16.06023256 266.32885532 11.85366971 261.99910529 7.5625 257.375 C6.9025 256.715 6.2425 256.055 5.5625 255.375 C5.04042969 256.01566406 4.51835937 256.65632813 3.98046875 257.31640625 C-7.45664806 270.75652075 -21.65798349 277.18436632 -39.1784668 278.69824219 C-42.99929902 278.84691464 -46.80135191 278.89344396 -50.625 278.875 C-51.29671234 278.87390228 -51.96842468 278.87280457 -52.66049194 278.87167358 C-67.71907756 278.8013679 -82.49241516 276.57206064 -95.4375 268.375 C-96.34757812 267.80007813 -97.25765625 267.22515625 -98.1953125 266.6328125 C-108.85464783 259.4007294 -115.5467957 250.22555273 -120.4375 238.375 C-120.85257813 237.37082031 -121.26765625 236.36664063 -121.6953125 235.33203125 C-128.01242847 216.49112242 -126.05634999 193.20838786 -120.4375 174.375 C-120.22899414 173.66762695 -120.02048828 172.96025391 -119.80566406 172.23144531 C-114.75777451 155.47429599 -114.75777451 155.47429599 -109.8125 151 C-105.50703278 148.92699726 -102.12641051 148.26981485 -97.4375 149.375 C-94.06615601 151.43421942 -91.21859684 153.81280633 -89.4375 157.375 C-88.78497518 162.92146095 -89.83553702 166.92701621 -91.6875 172.1875 C-98.22623502 190.83030113 -102.95508738 212.58751756 -94.984375 231.484375 C-89.79919169 241.17385896 -82.36137127 246.33627998 -72.0625 249.6875 C-56.09589168 253.66706837 -36.56259504 253.71937486 -21.765625 245.98046875 C-17.77192358 243.22642297 -15.59866492 239.64736071 -13.4375 235.375 C-13.10492188 234.73763916 -12.77234375 234.10027832 -12.4296875 233.44360352 C-9.56879082 227.59159272 -8.64245783 222.27195342 -8.1875 215.8125 C-8.11015625 214.89919922 -8.0328125 213.98589844 -7.953125 213.04492188 C-7.76694157 210.82235714 -7.59533206 208.59972634 -7.4375 206.375 C-8.21222656 206.22160156 -8.98695313 206.06820312 -9.78515625 205.91015625 C-15.85089603 204.68628828 -18.72178275 202.67847033 -22.24609375 197.58984375 C-23.79309631 194.71394063 -24.42245988 192.58453591 -24.140625 189.32421875 C-22.11130166 183.69848349 -16.1228096 180.44178943 -11 177.9375 C-1.1283239 174.41843028 10.78387315 175.11834342 20.3203125 179.234375 C27.32203566 182.7962272 27.32203566 182.7962272 29.9375 186.125 C30.91611993 189.64803174 31.32530281 192.80640944 30.5625 196.375 C28.95799388 199.17617792 27.15111403 201.43775089 24.5625 203.375 C21.85546875 204.06640625 21.85546875 204.06640625 19.5625 204.375 C19.73128613 218.905951 20.57821423 233.49385307 31.5625 244.375 C44.1498181 254.39347767 62.10629335 252.70405184 77.26708984 251.08642578 C87.12062185 249.55356269 95.72622319 245.93671833 102.359375 238.30859375 C103.979163 236.06735243 105.29458583 233.83158371 106.5625 231.375 C106.975 230.57578125 107.3875 229.7765625 107.8125 228.953125 C112.75627046 217.62365102 111.19394382 205.10142831 108.5625 193.375 C107.53032349 193.09003662 107.53032349 193.09003662 106.47729492 192.79931641 C78.13452522 184.85230468 54.90720145 172.95943054 34.75 151.1875 C34.24791016 150.65447266 33.74582031 150.12144531 33.22851562 149.57226562 C29.5625 145.60698342 29.5625 145.60698342 29.5625 143.375 C28.9025 143.375 28.2425 143.375 27.5625 143.375 C26.1953125 141.65234375 26.1953125 141.65234375 24.6875 139.3125 C24.19507813 138.55839844 23.70265625 137.80429688 23.1953125 137.02734375 C4.13729896 106.06947008 -4.48236609 70.55161325 3.80859375 34.34375 C4.05738281 33.3640625 4.30617187 32.384375 4.5625 31.375 C4.90180007 29.7095378 5.23610618 28.04303956 5.5625 26.375 C-20.71585987 26.67055568 -20.71585987 26.67055568 -46.4375 31.375 C-48.16288455 31.63109156 -49.89242954 31.86067258 -51.625 32.0625 C-70.34001049 35.08407241 -89.47961624 43.80044709 -104.4375 55.375 C-105.27796875 56.01308594 -106.1184375 56.65117188 -106.984375 57.30859375 C-133.76535407 78.12471839 -149.9463161 110.25508479 -155.4375 143.375 C-155.60741455 144.33720459 -155.7773291 145.29940918 -155.95239258 146.29077148 C-157.72940084 157.25204788 -157.81085941 168.11848332 -157.89379883 179.19897461 C-158.0377559 195.4123378 -159.23130385 210.59232884 -166.4375 225.375 C-166.7675 225.375 -167.0975 225.375 -167.4375 225.375 C-167.64866445 208.45814066 -167.80689607 191.54169829 -167.90380955 174.6238184 C-167.95002431 166.76674648 -168.01291616 158.91049803 -168.11645508 151.05395508 C-168.20676045 144.19824871 -168.26436377 137.3431392 -168.28429645 130.48685449 C-168.29593103 126.86324114 -168.32284759 123.24133371 -168.38907051 119.61827278 C-168.67850063 103.13769127 -168.3210845 90.05840272 -158.4375 76.375 C-157.57386364 75.0834809 -156.71488781 73.78883308 -155.86061096 72.49110413 C-150.51847499 64.40747869 -144.15920779 57.32372582 -137.4375 50.375 C-136.65246094 49.55 -135.86742187 48.725 -135.05859375 47.875 C-127.06756948 39.64771937 -118.22315197 33.30763125 -108.4375 27.375 C-107.37660156 26.72402344 -106.31570312 26.07304688 -105.22265625 25.40234375 C-87.59700786 14.9238655 -67.97704073 8.02419918 -47.875 4.125 C-47.09801758 3.97393799 -46.32103516 3.82287598 -45.52050781 3.66723633 C-30.41837348 0.94276704 -15.32519639 -0.03620255 0 0 Z " fill="#FD6503" transform="translate(167.4375,8.625)"/>
<path d="M0 0 C1.31703415 0.00081573 1.31703415 0.00081573 2.66067505 0.00164795 C29.87772486 0.07819753 56.24937433 3.29167062 82.5625 10.375 C83.25939941 10.55530762 83.95629883 10.73561523 84.67431641 10.92138672 C93.80911181 13.30237996 102.15189488 17.18156768 110.5625 21.375 C111.48699951 21.82335205 111.48699951 21.82335205 112.43017578 22.28076172 C126.73921942 29.24507382 141.72981867 38.96676148 152.0625 51.25 C154.54961571 54.20158342 154.54961571 54.20158342 157.171875 57.03125 C186.58650809 87.8465799 195.70964357 137.21437524 195.73046875 178.19140625 C195.73369127 179.69872569 195.73705604 181.20604483 195.74055481 182.71336365 C195.74650211 185.85408249 195.74839909 188.99477398 195.74780273 192.13549805 C195.74770092 196.13512874 195.76139276 200.1345827 195.77857494 204.13417149 C195.78975398 207.24078662 195.7917202 210.34735966 195.79119301 213.45399284 C195.79236271 214.92780101 195.79672681 216.40161064 195.80452538 217.87539864 C195.89937783 237.63599548 195.89937783 237.63599548 191.6875 244.375 C188.43396493 247.43715066 186.68071102 248.27146194 182.1875 248.6875 C176.83620425 248.2261814 173.88235292 246.76431886 170.1875 242.875 C167.62661758 237.35925326 167.91375368 231.70414256 169.06689453 225.78662109 C169.68896143 221.50447192 169.72433787 217.32899137 169.73046875 213.0078125 C169.73470352 212.10439117 169.73893829 211.20096985 169.74330139 210.27017212 C169.7531803 207.34673404 169.75322347 204.42345181 169.75 201.5 C169.74939575 200.50391724 169.7487915 199.50783447 169.74816895 198.48156738 C170.19272339 161.19765291 170.19272339 161.19765291 161.5625 125.375 C161.16524569 123.67170414 160.79202387 121.9626998 160.4375 120.25 C157.23241112 107.18805488 151.43611989 94.92459926 144.03125 83.74609375 C142.5625 81.375 142.5625 81.375 142.5625 79.375 C141.9025 79.375 141.2425 79.375 140.5625 79.375 C139.5835235 77.95717197 138.61169259 76.53367303 137.68359375 75.08203125 C133.24363448 68.32153577 127.2668802 62.8445868 120.5625 58.375 C120.5625 57.715 120.5625 57.055 120.5625 56.375 C119.840625 56.106875 119.11875 55.83875 118.375 55.5625 C115.58297083 54.38364324 113.13263814 52.97265344 110.5625 51.375 C109.9025 51.045 109.2425 50.715 108.5625 50.375 C108.5625 49.715 108.5625 49.055 108.5625 48.375 C107.386875 48.0346875 107.386875 48.0346875 106.1875 47.6875 C103.32132741 46.64974786 100.97055356 45.55519837 98.3125 44.125 C83.69182516 36.73862638 67.51561763 33.51218791 51.5625 30.375 C50.71284668 30.19388672 49.86319336 30.01277344 48.98779297 29.82617188 C34.13316516 26.8214291 18.81443557 27.1885273 3.7265625 27.18969727 C0.56757258 27.18750352 -2.59107108 27.1692521 -5.75 27.15039062 C-19.65298672 27.11103279 -33.01038178 27.40584356 -46.4375 31.375 C-48.16288455 31.63109156 -49.89242954 31.86067258 -51.625 32.0625 C-70.34001049 35.08407241 -89.47961624 43.80044709 -104.4375 55.375 C-105.27796875 56.01308594 -106.1184375 56.65117188 -106.984375 57.30859375 C-133.76535407 78.12471839 -149.9463161 110.25508479 -155.4375 143.375 C-155.60741455 144.33720459 -155.7773291 145.29940918 -155.95239258 146.29077148 C-157.72940084 157.25204788 -157.81085941 168.11848332 -157.89379883 179.19897461 C-158.0377559 195.4123378 -159.23130385 210.59232884 -166.4375 225.375 C-166.7675 225.375 -167.0975 225.375 -167.4375 225.375 C-167.64866445 208.45814066 -167.80689607 191.54169829 -167.90380955 174.6238184 C-167.95002431 166.76674648 -168.01291616 158.91049803 -168.11645508 151.05395508 C-168.20676045 144.19824871 -168.26436377 137.3431392 -168.28429645 130.48685449 C-168.29593103 126.86324114 -168.32284759 123.24133371 -168.38907051 119.61827278 C-168.67850063 103.13769127 -168.3210845 90.05840272 -158.4375 76.375 C-157.57386364 75.0834809 -156.71488781 73.78883308 -155.86061096 72.49110413 C-150.51847499 64.40747869 -144.15920779 57.32372582 -137.4375 50.375 C-136.65246094 49.55 -135.86742187 48.725 -135.05859375 47.875 C-127.06756948 39.64771937 -118.22315197 33.30763125 -108.4375 27.375 C-107.37660156 26.72402344 -106.31570312 26.07304688 -105.22265625 25.40234375 C-87.59700786 14.9238655 -67.97704073 8.02419918 -47.875 4.125 C-47.09801758 3.97393799 -46.32103516 3.82287598 -45.52050781 3.66723633 C-30.41837348 0.94276704 -15.32519639 -0.03620255 0 0 Z " fill="#040404" transform="translate(167.4375,8.625)"/>
<path d="M0 0 C3.37134399 2.05921942 6.21890316 4.43780633 8 8 C8.65252482 13.54646095 7.60196298 17.55201621 5.75 22.8125 C-0.78873502 41.45530113 -5.51758738 63.21251756 2.453125 82.109375 C7.63830831 91.79885896 15.07612873 96.96127998 25.375 100.3125 C41.34160832 104.29206837 60.87490496 104.34437486 75.671875 96.60546875 C79.66557642 93.85142297 81.83883508 90.27236071 84 86 C84.33257812 85.36263916 84.66515625 84.72527832 85.0078125 84.06860352 C87.86870918 78.21659272 88.79504217 72.89695342 89.25 66.4375 C89.32734375 65.52419922 89.4046875 64.61089844 89.484375 63.66992188 C89.67055843 61.44735714 89.84216794 59.22472634 90 57 C89.22527344 56.84660156 88.45054687 56.69320312 87.65234375 56.53515625 C81.58660397 55.31128828 78.71571725 53.30347033 75.19140625 48.21484375 C73.64440369 45.33894063 73.01504012 43.20953591 73.296875 39.94921875 C75.32619834 34.32348349 81.3146904 31.06678943 86.4375 28.5625 C96.3091761 25.04343028 108.22137315 25.74334342 117.7578125 29.859375 C124.75953566 33.4212272 124.75953566 33.4212272 127.375 36.75 C128.35361993 40.27303174 128.76280281 43.43140944 128 47 C126.39549388 49.80117792 124.58861403 52.06275089 122 54 C119.29296875 54.69140625 119.29296875 54.69140625 117 55 C117.16878613 69.530951 118.01571423 84.11885307 129 95 C141.5873181 105.01847767 159.54379335 103.32905184 174.70458984 101.71142578 C184.55812185 100.17856269 193.16372319 96.56171833 199.796875 88.93359375 C201.416663 86.69235243 202.73208583 84.45658371 204 82 C204.61875 80.80117187 204.61875 80.80117187 205.25 79.578125 C212.88678436 62.07716084 206.34680728 40.62221029 200.59082031 23.47363281 C198.83209262 18.0117281 198.01082683 12.69555497 199 7 C199.66 6.01 200.32 5.02 201 4 C201.99 4 202.98 4 204 4 C204 3.34 204 2.68 204 2 C204.66 2 205.32 2 206 2 C206 1.34 206 0.68 206 0 C216.04211574 -1.16995523 216.04211574 -1.16995523 219.921875 1.1484375 C234.89679409 18.94121771 235.33941147 52.32588709 234 74 C233.32331575 78.90273141 231.82970671 83.40990532 230 88 C229.69964844 88.90363281 229.39929688 89.80726563 229.08984375 90.73828125 C226.85270828 97.12041232 223.44168966 101.94272435 219 107 C218.48824219 107.60585938 217.97648438 108.21171875 217.44921875 108.8359375 C209.73071476 117.30139349 198.93676517 122.94890783 188 126 C186.94039062 126.29777344 185.88078125 126.59554687 184.7890625 126.90234375 C163.68100818 131.95802564 138.0457368 130.94327725 118.875 120.3125 C113.49773256 116.95385532 109.29116971 112.62410529 105 108 C104.34 107.34 103.68 106.68 103 106 C102.47792969 106.64066406 101.95585937 107.28132813 101.41796875 107.94140625 C89.98085194 121.38152075 75.77951651 127.80936632 58.2590332 129.32324219 C54.43820098 129.47191464 50.63614809 129.51844396 46.8125 129.5 C45.80493149 129.49835342 45.80493149 129.49835342 44.77700806 129.49667358 C29.71842244 129.4263679 14.94508484 127.19706064 2 119 C1.08992188 118.42507813 0.17984375 117.85015625 -0.7578125 117.2578125 C-11.41714783 110.0257294 -18.1092957 100.85055273 -23 89 C-23.41507813 87.99582031 -23.83015625 86.99164063 -24.2578125 85.95703125 C-30.57492847 67.11612242 -28.61884999 43.83338786 -23 25 C-22.79149414 24.29262695 -22.58298828 23.58525391 -22.36816406 22.85644531 C-17.32027451 6.09929599 -17.32027451 6.09929599 -12.375 1.625 C-8.06953278 -0.44800274 -4.68891051 -1.10518515 0 0 Z " fill="#040404" transform="translate(70,158)"/>
<path d="M0 0 C3.70158529 2.60317319 5.85727995 5.29065454 7.27734375 9.6015625 C7.83756509 14.47682202 7.83462766 18.92971076 6.27734375 23.6015625 C5.61734375 23.6015625 4.95734375 23.6015625 4.27734375 23.6015625 C4.13619141 24.49294922 4.13619141 24.49294922 3.9921875 25.40234375 C2.63634207 29.57360591 -0.987196 31.60523456 -4.72265625 33.6015625 C-9.69540041 35.01128125 -13.58532487 34.93716848 -18.53515625 33.4765625 C-23.97158217 30.2786649 -27.61324292 26.59673723 -29.72265625 20.6015625 C-30.40050215 14.3802371 -30.47428776 8.85384662 -26.72265625 3.6015625 C-18.29903314 -4.45581612 -10.14629527 -5.59687782 0 0 Z " fill="#040104" transform="translate(244.72265625,126.3984375)"/>
<path d="M0 0 C3.74300195 2.59228176 5.86586712 5.27627633 7.3125 9.6015625 C8.20882162 15.78793919 8.06131345 21.40159545 4.3125 26.6015625 C-0.56025843 31.7081149 -4.9377619 34.10631407 -12 35.0390625 C-17.79435617 34.35159651 -22.24360131 32.05680179 -26.37109375 27.91015625 C-30.52247908 22.27697333 -30.52791158 16.36305568 -29.6875 9.6015625 C-27.96434315 3.78590813 -23.78091732 0.60286599 -18.6875 -2.3984375 C-11.74224659 -4.57294758 -6.27134545 -3.42247206 0 0 Z " fill="#050505" transform="translate(129.6875,126.3984375)"/>
<path d="M0 0 C17.33431642 -0.16957483 33.99019421 0.40351181 51 4 C51 4.33 51 4.66 51 5 C33.99590164 5.33196721 33.99590164 5.33196721 27 3 C25.15533558 2.85110253 23.30642725 2.7520899 21.45703125 2.68359375 C20.38388672 2.64169922 19.31074219 2.59980469 18.20507812 2.55664062 C17.08552734 2.51732422 15.96597656 2.47800781 14.8125 2.4375 C13.68134766 2.39431641 12.55019531 2.35113281 11.38476562 2.30664062 C8.58996646 2.20050901 5.79507838 2.09845615 3 2 C0.03138684 8.9974453 -1.30108975 15.16948899 -1.23046875 22.70703125 C-1.23001053 23.51363693 -1.22955231 24.32024261 -1.2290802 25.15129089 C-1.22607728 26.84298183 -1.21825032 28.53467049 -1.20581055 30.22631836 C-1.18743131 32.82220165 -1.185302 35.41772997 -1.18554688 38.01367188 C-1.18063545 39.66146143 -1.17480877 41.30924857 -1.16796875 42.95703125 C-1.16685593 43.73407913 -1.1657431 44.51112701 -1.16459656 45.3117218 C-1.21271007 49.28552658 -1.21271007 49.28552658 0 53 C0.07092842 55.2072923 0.08415025 57.41667452 0.0625 59.625 C0.05347656 60.81351563 0.04445312 62.00203125 0.03515625 63.2265625 C0.02355469 64.14179687 0.01195312 65.05703125 0 66 C0.99 66.33 1.98 66.66 3 67 C3.66 70.3 4.32 73.6 5 77 C6.65 77 8.3 77 10 77 C9.67 77.99 9.34 78.98 9 80 C8.34 80 7.68 80 7 80 C7.96768089 83.45600318 8.95069754 86.85757068 10.125 90.25 C11 93 11 93 11 96 C11.66 96 12.32 96 13 96 C13 96.66 13 97.32 13 98 C13.66 98 14.32 98 15 98 C16.6296273 100.50118285 18.02662405 103.09956444 19.46484375 105.71484375 C20.85862703 108.29239843 20.85862703 108.29239843 24 109 C24.921875 110.70703125 24.921875 110.70703125 25.75 112.8125 C27.90043944 117.49138581 30.39497153 118.87460224 35 121 C35 122.65 35 124.3 35 126 C39.455 125.01 39.455 125.01 44 124 C43.42547254 120.06924356 43.42547254 120.06924356 41 117 C39.65263724 113.32066323 39.7964472 109.50334114 39.75 105.625 C39.72421875 104.33851563 39.6984375 103.05203125 39.671875 101.7265625 C40.02244678 97.74506872 40.87859726 95.36393864 43 92 C45.5 90.75 45.5 90.75 48 90 C48.99 89.34 49.98 88.68 51 88 C53.92926622 86.53536689 56.55256781 86.86817292 59.8125 86.875 C61.03582031 86.87242188 62.25914062 86.86984375 63.51953125 86.8671875 C66.49017156 86.98054527 69.1189481 87.30854754 72 88 C72 88.66 72 89.32 72 90 C72.66 90 73.32 90 74 90 C75.35278115 91.98689731 76.68568305 93.98745218 78 96 C78.66 96.33 79.32 96.66 80 97 C82.1207302 103.36219059 81.87520265 111.28685153 79.875 117.6875 C78 121 78 121 74.875 122.3125 C73.92625 122.539375 72.9775 122.76625 72 123 C71.505 124.485 71.505 124.485 71 126 C69.68 126 68.36 126 67 126 C67 126.99 67 127.98 67 129 C64.20251159 129.93249614 62.45679119 130.13476152 59.5625 130.125 C58.80066406 130.12757813 58.03882813 130.13015625 57.25390625 130.1328125 C55 130 55 130 51 129 C51 133.62 51 138.24 51 143 C52.546875 143.433125 54.09375 143.86625 55.6875 144.3125 C59.48083561 145.45694828 62.82796385 146.54423008 66 149 C66.33 149.99 66.66 150.98 67 152 C67.763125 152.144375 68.52625 152.28875 69.3125 152.4375 C72 153 72 153 75 154 C75 154.99 75 155.98 75 157 C57.14999608 152.17567461 41.41174962 138.01599525 29.1875 124.8125 C28.68541016 124.27947266 28.18332031 123.74644531 27.66601562 123.19726562 C24 119.23198342 24 119.23198342 24 117 C23.34 117 22.68 117 22 117 C20.6328125 115.27734375 20.6328125 115.27734375 19.125 112.9375 C18.63257813 112.18339844 18.14015625 111.42929688 17.6328125 110.65234375 C-1.42520104 79.69447008 -10.04486609 44.17661325 -1.75390625 7.96875 C-1.50511719 6.9890625 -1.25632813 6.009375 -1 5 C-0.65763478 3.33516519 -0.32074785 1.66913442 0 0 Z M45.0625 95.0625 C41.29300635 100.43117278 41.4983322 105.64250073 42 112 C44.10941333 117.99517473 47.75107408 121.6771024 53.1875 124.875 C58.94453971 126.5737986 63.99614313 126.6053399 69.3828125 123.7265625 C73.44055421 120.97367254 73.44055421 120.97367254 75.71484375 116.80078125 C75.85599609 115.90939453 75.85599609 115.90939453 76 115 C76.66 115 77.32 115 78 115 C79.75718095 109.72845714 79.98629293 103.99410355 78.234375 98.67578125 C75.06616113 92.81904787 70.20237814 90.06112719 64 88 C56.61284801 86.47951152 49.88765912 89.50247469 45.0625 95.0625 Z " fill="#F86707" transform="translate(173,35)"/>
<path d="M0 0 C3.82198855 3.27718755 5.60968168 7.00132411 7.5 11.5625 C7.80188232 12.27341797 8.10376465 12.98433594 8.41479492 13.71679688 C11.58697899 21.25850483 14.69154522 28.83798862 16.5078125 36.8359375 C16.86611856 38.41134668 17.26190279 39.97837251 17.6796875 41.5390625 C19.57565412 48.94701454 20.67325224 56.35651969 21.625 63.9375 C21.80953735 65.40123047 21.80953735 65.40123047 21.99780273 66.89453125 C23.84417955 82.26698801 24.12874623 97.41338072 24.0625 112.875 C24.05747274 114.93098849 24.05291201 116.98697817 24.04882812 119.04296875 C24.03792482 124.02867592 24.02072847 129.0143244 24 134 C23.67 134 23.34 134 23 134 C22.67 123.11 22.34 112.22 22 101 C17.4521875 101.99 17.4521875 101.99 12.8125 103 C4.73047731 104.68675186 -2.72762503 105.54344069 -11 105 C-11.32871094 103.36417969 -11.32871094 103.36417969 -11.6640625 101.6953125 C-13.37638536 93.44385481 -15.33602587 85.33244904 -17.9375 77.3125 C-18.1658252 76.58369629 -18.39415039 75.85489258 -18.62939453 75.10400391 C-20.33620438 70.02111244 -22.71622354 66.23946099 -26 62 C-24.35 62.33 -22.7 62.66 -21 63 C-20.505 64.485 -20.505 64.485 -20 66 C-19.34 66.33 -18.68 66.66 -18 67 C-15.7057691 72.25761247 -14.41180563 77.35322202 -13.4296875 82.99609375 C-13.1921136 84.98893291 -13.1921136 84.98893291 -12 86 C-11.62592415 88.28536966 -11.30052508 90.57880055 -11 92.875 C-10.33172671 98.01373754 -10.33172671 98.01373754 -9 103 C-4.05 103 0.9 103 6 103 C6 102.34 6 101.68 6 101 C7.051875 100.71125 8.10375 100.4225 9.1875 100.125 C12.86177831 99.11069449 12.86177831 99.11069449 15.75 97.875 C18 97 18 97 21 97 C20.88529624 93.97846145 20.7585615 90.95821599 20.625 87.9375 C20.5940625 87.08994141 20.563125 86.24238281 20.53125 85.36914062 C20.35256557 81.512535 20.05719858 78.19811311 18.98046875 74.46875 C17.74654798 70.10332514 17.75035109 66.0720659 17.6875 61.5625 C17.44259887 53.2756581 15.99828161 46.3441416 13.15625 38.578125 C12.25976242 35.80385939 11.77218944 33.68511261 11.47265625 30.84765625 C11.0515959 27.42001618 10.46435259 25.22478741 8.9375 22.1875 C7.54836654 19.39440247 7 18.18675092 7 15 C6.34 15 5.68 15 5 15 C3.33333333 10 1.66666667 5 0 0 Z " fill="#C66F3B" transform="translate(314,97)"/>
<path d="M0 0 C8.55443876 0.2261991 16.1260926 2.73740434 24.16113281 5.40527344 C26.54626233 6.1766722 28.95789908 6.83663161 31.375 7.5 C36.57355622 9.04031295 41.225684 11.46518274 46 14 C47.20640466 14.60800872 48.4144018 15.21288446 49.625 15.8125 C50.40875 16.204375 51.1925 16.59625 52 17 C52 17.66 52 18.32 52 19 C52.86625 19.2475 53.7325 19.495 54.625 19.75 C60.61107704 21.96706557 64.59691731 25.48952505 69 30 C70.20208004 31.00750833 71.41073809 32.00720724 72.625 33 C75.45222535 35.37757949 77.32885658 37.65771317 79 41 C77.35 41 75.7 41 74 41 C73.91621094 40.38253906 73.83242188 39.76507813 73.74609375 39.12890625 C73.19784254 36.87167176 73.19784254 36.87167176 71.22265625 35.83984375 C70.50980469 35.54207031 69.79695313 35.24429688 69.0625 34.9375 C65.76741681 33.54411636 65.09612306 33.14418459 63 30 C61.989375 29.505 60.97875 29.01 59.9375 28.5 C57 27 57 27 56 24 C54.35 23.67 52.7 23.34 51 23 C51 22.34 51 21.68 51 21 C48.69 20.34 46.38 19.68 44 19 C44 18.01 44 17.02 44 16 C42.7315625 15.8453125 42.7315625 15.8453125 41.4375 15.6875 C37.53944527 14.90788905 34.56596821 13.74802363 31 12 C30.67 11.34 30.34 10.68 30 10 C28.10466658 9.53476937 28.10466658 9.53476937 25.9375 9.375 C24.638125 9.25125 23.33875 9.1275 22 9 C21.67 8.01 21.34 7.02 21 6 C20.32195312 5.87882812 19.64390625 5.75765625 18.9453125 5.6328125 C12.61492691 4.49299238 6.30247356 3.28510307 0 2 C0 1.34 0 0.68 0 0 Z " fill="#CE6B33" transform="translate(224,40)"/>
<path d="M0 0 C1.83498047 -0.00386719 1.83498047 -0.00386719 3.70703125 -0.0078125 C6.67767156 0.10554527 9.3064481 0.43354754 12.1875 1.125 C12.1875 1.785 12.1875 2.445 12.1875 3.125 C12.8475 3.125 13.5075 3.125 14.1875 3.125 C15.54028115 5.11189731 16.87318305 7.11245218 18.1875 9.125 C18.8475 9.455 19.5075 9.785 20.1875 10.125 C22.3082302 16.48719059 22.06270265 24.41185153 20.0625 30.8125 C18.1875 34.125 18.1875 34.125 15.0625 35.4375 C14.11375 35.664375 13.165 35.89125 12.1875 36.125 C11.8575 37.115 11.5275 38.105 11.1875 39.125 C4.10408276 41.99486226 -5.8155259 40.72852525 -12.8125 38.125 C-12.8125 37.465 -12.8125 36.805 -12.8125 36.125 C-13.4725 36.125 -14.1325 36.125 -14.8125 36.125 C-19.31271284 30.12471621 -19.9737594 26.15984049 -20.0625 18.75 C-20.08828125 17.46351563 -20.1140625 16.17703125 -20.140625 14.8515625 C-19.79005322 10.87006872 -18.93390274 8.48893864 -16.8125 5.125 C-14.3125 3.875 -14.3125 3.875 -11.8125 3.125 C-10.8225 2.465 -9.8325 1.805 -8.8125 1.125 C-5.88323378 -0.33963311 -3.25993219 -0.00682708 0 0 Z M-14.75 8.1875 C-18.51949365 13.55617278 -18.3141678 18.76750073 -17.8125 25.125 C-15.70308667 31.12017473 -12.06142592 34.8021024 -6.625 38 C-0.86796029 39.6987986 4.18364313 39.7303399 9.5703125 36.8515625 C13.62805421 34.09867254 13.62805421 34.09867254 15.90234375 29.92578125 C16.04349609 29.03439453 16.04349609 29.03439453 16.1875 28.125 C16.8475 28.125 17.5075 28.125 18.1875 28.125 C19.94468095 22.85345714 20.17379293 17.11910355 18.421875 11.80078125 C15.25366113 5.94404787 10.38987814 3.18612719 4.1875 1.125 C-3.19965199 -0.39548848 -9.92484088 2.62747469 -14.75 8.1875 Z " fill="#D0672E" transform="translate(232.8125,121.875)"/>
<path d="M0 0 C17.33431642 -0.16957483 33.99019421 0.40351181 51 4 C51 4.33 51 4.66 51 5 C33.99590164 5.33196721 33.99590164 5.33196721 27 3 C25.15533558 2.85110253 23.30642725 2.7520899 21.45703125 2.68359375 C20.38388672 2.64169922 19.31074219 2.59980469 18.20507812 2.55664062 C17.08552734 2.51732422 15.96597656 2.47800781 14.8125 2.4375 C13.68134766 2.39431641 12.55019531 2.35113281 11.38476562 2.30664062 C8.58996646 2.20050901 5.79507838 2.09845615 3 2 C0.03138684 8.9974453 -1.30108975 15.16948899 -1.23046875 22.70703125 C-1.23001053 23.51363693 -1.22955231 24.32024261 -1.2290802 25.15129089 C-1.22607728 26.84298183 -1.21825032 28.53467049 -1.20581055 30.22631836 C-1.18743131 32.82220165 -1.185302 35.41772997 -1.18554688 38.01367188 C-1.18063545 39.66146143 -1.17480877 41.30924857 -1.16796875 42.95703125 C-1.16685593 43.73407913 -1.1657431 44.51112701 -1.16459656 45.3117218 C-1.21271007 49.28552658 -1.21271007 49.28552658 0 53 C0.27817927 56.27633366 0.44691811 59.55254147 0.62109375 62.8359375 C0.98030416 65.83552956 1.64781552 67.3825184 3 70 C3.1953125 72.359375 3.1953125 72.359375 3.125 74.75 C3.10695312 75.54921875 3.08890625 76.3484375 3.0703125 77.171875 C3.04710937 77.77515625 3.02390625 78.3784375 3 79 C-3.90499226 66.0829024 -4.37482166 49.93021759 -4.3125 35.625 C-4.31048584 34.36365234 -4.30847168 33.10230469 -4.30639648 31.80273438 C-4.20666434 22.51988144 -3.28331977 13.99131102 -1 5 C-0.65763478 3.33516519 -0.32074785 1.66913442 0 0 Z " fill="#DF6F24" transform="translate(173,35)"/>
<path d="M0 0 C2.0343459 1.41519715 2.90410393 2.54982123 3.421875 4.98046875 C3.66273952 6.98176954 3.83532741 8.9909944 4 11 C5.65 11 7.3 11 9 11 C8.67 11.99 8.34 12.98 8 14 C7.34 14 6.68 14 6 14 C6.96768089 17.45600318 7.95069754 20.85757068 9.125 24.25 C10 27 10 27 10 30 C10.66 30 11.32 30 12 30 C12 30.66 12 31.32 12 32 C12.66 32 13.32 32 14 32 C15.6296273 34.50118285 17.02662405 37.09956444 18.46484375 39.71484375 C19.85862703 42.29239843 19.85862703 42.29239843 23 43 C25.94265013 47.25162208 27.48686537 51.86865375 28 57 C26.2925002 55.71937515 24.62626404 54.38232443 23 53 C23 52.34 23 51.68 23 51 C22.34 51 21.68 51 21 51 C19.6328125 49.27734375 19.6328125 49.27734375 18.125 46.9375 C17.63257813 46.18339844 17.14015625 45.42929688 16.6328125 44.65234375 C13.03600405 38.80968122 9.84894756 32.83445483 6.8125 26.6875 C6.45736328 25.97271484 6.10222656 25.25792969 5.73632812 24.52148438 C4.8225607 22.68181221 3.91111216 20.84098865 3 19 C2.67 18.34 2.34 17.68 2 17 C1.79413422 14.87843877 1.63385378 12.75231896 1.5 10.625 C1.26856896 6.96343029 1.04234665 3.52660615 0 0 Z " fill="#E27127" transform="translate(174,101)"/>
<path d="M0 0 C0.66 0 1.32 0 2 0 C1.57382234 3.6225101 1.13458406 7.22235081 0.51245117 10.81713867 C-0.88543976 18.96519406 -1.34913328 26.86530537 -1.3125 35.125 C-1.30839111 37.01327515 -1.30839111 37.01327515 -1.30419922 38.93969727 C-1.17907628 50.19716598 -0.4788043 61.6066219 3.125 72.35546875 C4.04434252 75.13401736 4.03378333 76.31216335 3 79 C3 78.34 3 77.68 3 77 C2.34 77 1.68 77 1 77 C-0.18745807 74.62508386 -0.24325487 72.83161221 -0.4375 70.1875 C-0.78004273 66.38690687 -1.51760243 63.52069424 -3 60 C-3.79174242 54.75322413 -4.12809423 49.70185162 -4.1328125 44.38671875 C-4.13376923 43.69165726 -4.13472595 42.99659576 -4.13571167 42.2804718 C-4.1363869 40.82085071 -4.13457888 39.36122651 -4.13037109 37.90161133 C-4.12503813 35.70321676 -4.13032594 33.50502876 -4.13671875 31.30664062 C-4.14976667 9.56250581 -4.14976667 9.56250581 0 0 Z " fill="#FEF4DB" transform="translate(171,35)"/>
<path d="M0 0 C0.99386719 0.00902344 1.98773438 0.01804688 3.01171875 0.02734375 C4.15060547 0.04474609 4.15060547 0.04474609 5.3125 0.0625 C5.3125 0.3925 5.3125 0.7225 5.3125 1.0625 C2.3425 1.0625 -0.6275 1.0625 -3.6875 1.0625 C-3.6875 1.7225 -3.6875 2.3825 -3.6875 3.0625 C-4.3475 3.0625 -5.0075 3.0625 -5.6875 3.0625 C-5.6875 3.7225 -5.6875 4.3825 -5.6875 5.0625 C-6.6775 5.3925 -7.6675 5.7225 -8.6875 6.0625 C-11.95590772 12.59931545 -9.47835474 20.5871264 -7.3125 27.125 C-7.09126465 27.76066895 -6.8700293 28.39633789 -6.64208984 29.05126953 C-4.82029918 34.31080457 -3.67783017 39.58766909 -2.6875 45.0625 C-6.02243927 44.13065214 -9.35512799 43.19098355 -12.6875 42.25 C-13.62207031 41.98896484 -14.55664062 41.72792969 -15.51953125 41.45898438 C-21.02466542 39.89983798 -26.36129736 38.15403948 -31.6875 36.0625 C-31.6875 35.7325 -31.6875 35.4025 -31.6875 35.0625 C-25.71618763 34.56489064 -21.88593684 35.14316876 -16.68359375 38.10546875 C-13.41908886 39.67064233 -10.273663 39.8063455 -6.6875 40.0625 C-6.74741406 38.10331032 -6.83617138 36.14498471 -6.9375 34.1875 C-6.98390625 33.09695312 -7.0303125 32.00640625 -7.078125 30.8828125 C-7.27921875 29.95210937 -7.4803125 29.02140625 -7.6875 28.0625 C-8.34234375 27.76214844 -8.9971875 27.46179688 -9.671875 27.15234375 C-10.33703125 26.79269531 -11.0021875 26.43304688 -11.6875 26.0625 C-12.27895534 23.39787047 -12.57634506 21.19245351 -12.6875 18.5 C-12.72456055 17.77997803 -12.76162109 17.05995605 -12.79980469 16.31811523 C-12.95391364 10.70513863 -12.31177272 5.5928409 -8.6875 1.0625 C-5.53819107 0.01273036 -3.29935544 -0.03881595 0 0 Z " fill="#CD672D" transform="translate(279.6875,156.9375)"/>
<path d="M0 0 C2.0830977 2.0830977 3.2948161 4.22977313 4.71484375 6.7890625 C6.87034832 10.49731656 9.25578892 14.05976253 11.609375 17.64453125 C13 20 13 20 13 22 C13.66 22 14.32 22 15 22 C16.45145244 23.6613366 17.83648605 25.38100609 19.1875 27.125 C21.9364641 30.58007927 24.57633738 33.70719861 28 36.5 C31 39 31 39 32 42 C31.01 42 30.02 42 29 42 C29 41.01 29 40.02 29 39 C28.37351563 38.95101562 27.74703125 38.90203125 27.1015625 38.8515625 C26.28429687 38.77679688 25.46703125 38.70203125 24.625 38.625 C23.81289062 38.55539063 23.00078125 38.48578125 22.1640625 38.4140625 C20 38 20 38 18 36 C17.875 32.875 17.875 32.875 18 30 C15.69 29.67 13.38 29.34 11 29 C10.82984375 28.13117188 10.6596875 27.26234375 10.484375 26.3671875 C8.36860548 15.59693689 8.36860548 15.59693689 1 8 C0.29947539 5.336937 0.22255182 2.75964263 0 0 Z " fill="#F8FBE1" transform="translate(182,130)"/>
<path d="M0 0 C1.32 0 2.64 0 4 0 C4.33 1.32 4.66 2.64 5 4 C5.66 4 6.32 4 7 4 C7 4.66 7 5.32 7 6 C7.61488281 6.14695313 8.22976562 6.29390625 8.86328125 6.4453125 C15.57004161 8.30651872 15.57004161 8.30651872 17.9375 12.125 C18.288125 13.07375 18.63875 14.0225 19 15 C19.66 15.33 20.32 15.66 21 16 C21 16.66 21 17.32 21 18 C21.66386719 18.18175781 22.32773438 18.36351562 23.01171875 18.55078125 C32.42135642 21.22943723 32.42135642 21.22943723 36 24 C36.495 25.485 36.495 25.485 37 27 C37.763125 27.144375 38.52625 27.28875 39.3125 27.4375 C42 28 42 28 45 29 C45 29.99 45 30.98 45 32 C27.74857108 27.33745164 11.04005105 13.5634913 0 0 Z " fill="#D9793D" transform="translate(203,160)"/>
<path d="M0 0 C3.82198855 3.27718755 5.60968168 7.00132411 7.5 11.5625 C7.80188232 12.27341797 8.10376465 12.98433594 8.41479492 13.71679688 C11.89561347 21.99226777 15.01965592 30.23429092 17 39 C17.25910156 40.03511719 17.51820313 41.07023437 17.78515625 42.13671875 C19.19125072 47.87227617 20.41250866 53.08737591 20 59 C19.34 59 18.68 59 18 59 C17.83564453 57.85724609 17.83564453 57.85724609 17.66796875 56.69140625 C16.79103555 50.98064614 15.68685365 45.70282372 13.71484375 40.27734375 C12.90516264 37.69786787 12.48096381 35.17002129 12.0625 32.5 C11.30162268 27.86970382 9.91068973 24.0562599 7.8046875 19.875 C7 18 7 18 7 15 C6.34 15 5.68 15 5 15 C3.33333333 10 1.66666667 5 0 0 Z " fill="#CE642A" transform="translate(314,97)"/>
<path d="M0 0 C0.66 0 1.32 0 2 0 C2 0.66 2 1.32 2 2 C2.72574219 2.13148437 3.45148438 2.26296875 4.19921875 2.3984375 C12.83279905 4.25279087 18.69127637 7.97922641 25 14 C26.26607962 15.04743936 27.53670436 16.08941693 28.8125 17.125 C31.55484473 19.45411471 33.37365965 21.74731931 35 25 C33.35 25 31.7 25 30 25 C29.87431641 24.07380859 29.87431641 24.07380859 29.74609375 23.12890625 C29.19784254 20.87167176 29.19784254 20.87167176 27.22265625 19.83984375 C26.50980469 19.54207031 25.79695313 19.24429688 25.0625 18.9375 C21.76741681 17.54411636 21.09612306 17.14418459 19 14 C17.989375 13.505 16.97875 13.01 15.9375 12.5 C13 11 13 11 12 8 C10.35 7.67 8.7 7.34 7 7 C7 6.34 7 5.68 7 5 C4.69 4.34 2.38 3.68 0 3 C0 2.01 0 1.02 0 0 Z " fill="#E96A1B" transform="translate(268,56)"/>
<path d="M0 0 C1.27875 0.28875 2.5575 0.5775 3.875 0.875 C4.95394531 1.11863281 4.95394531 1.11863281 6.0546875 1.3671875 C8 2 8 2 10 4 C11.010625 4.33 12.02125 4.66 13.0625 5 C16 6 16 6 17 8 C18.33076989 8.34342449 19.66431979 8.67619874 21 9 C23 11 23 11 24 13 C24.99 13.33 25.98 13.66 27 14 C28.859375 15.92578125 28.859375 15.92578125 30.75 18.3125 C31.70132812 19.48232422 31.70132812 19.48232422 32.671875 20.67578125 C34 23 34 23 33.703125 25.29296875 C33.47109375 25.85628906 33.2390625 26.41960937 33 27 C32.505 26.319375 32.01 25.63875 31.5 24.9375 C27.56145654 20.30971144 23.05527936 16.37018624 18 13 C18 12.34 18 11.68 18 11 C17.278125 10.731875 16.55625 10.46375 15.8125 10.1875 C13.02047083 9.00864324 10.57013814 7.59765344 8 6 C7.34 5.67 6.68 5.34 6 5 C6 4.34 6 3.68 6 3 C4.02 2.34 2.04 1.68 0 1 C0 0.67 0 0.34 0 0 Z " fill="#170101" transform="translate(270,54)"/>
<path d="M0 0 C9.27110359 -0.15863105 18.21270726 -0.24747775 27 3 C28.33165884 3.29921889 29.66514087 3.59039796 31 3.875 C34.94521646 4.81825859 37.64597258 6.71640686 41 9 C42.2375 9.350625 43.475 9.70125 44.75 10.0625 C48 11 48 11 50 14 C48.56115294 13.58800909 47.12402645 13.17001084 45.6875 12.75 C44.88699219 12.51796875 44.08648437 12.2859375 43.26171875 12.046875 C40.42248966 11.13560147 37.66910749 10.11679116 34.8828125 9.05859375 C29.07513093 6.93040121 23.23856233 5.55302761 17.1875 4.3125 C15.69186523 3.99442383 15.69186523 3.99442383 14.16601562 3.66992188 C9.45845608 2.67704338 4.7560679 1.73480845 0 1 C0 0.67 0 0.34 0 0 Z " fill="#3F1005" transform="translate(213,37)"/>
<path d="M0 0 C0.66 0 1.32 0 2 0 C1.67 1.65 1.34 3.3 1 5 C1.66 5.33 2.32 5.66 3 6 C2.01 6 1.02 6 0 6 C0 7.98 0 9.96 0 12 C0.66 12 1.32 12 2 12 C5.62994091 22.93822194 7.40875124 33.46413163 7 45 C6.67 45 6.34 45 6 45 C5.84144531 44.1028125 5.68289063 43.205625 5.51953125 42.28125 C4.20244565 35.23738888 2.61085757 28.53963596 0.3125 21.75 C-1.75340337 15.53499886 -3.13888211 9.5575633 -2 3 C-1.34 2.01 -0.68 1.02 0 0 Z " fill="#32100A" transform="translate(271,162)"/>
<path d="M0 0 C1.32 0.33 2.64 0.66 4 1 C4 24.43 4 47.86 4 72 C3.67 72 3.34 72 3 72 C2.99191315 71.37820358 2.98382629 70.75640717 2.97549438 70.11576843 C2.88829048 63.54355108 2.78876354 56.97159627 2.68261719 50.3996582 C2.64473442 47.95894846 2.60981724 45.51819056 2.578125 43.07739258 C2.38800953 28.60782308 1.87434249 14.35711107 0 0 Z " fill="#BFBFBF" transform="translate(360,152)"/>
<path d="M0 0 C7.23676006 2.14242265 14.43645677 4.38889372 21.625 6.6875 C22.62917969 7.00783203 23.63335937 7.32816406 24.66796875 7.65820312 C27.11222453 8.43803711 29.55622932 9.21864745 32 10 C32 10.33 32 10.66 32 11 C24.81370201 11.43774404 19.59445177 11.22724231 13.1796875 7.890625 C9.43676136 6.36125733 5.98999425 6.74666703 2 7 C1.34 4.69 0.68 2.38 0 0 Z " fill="#FCF8E7" transform="translate(244,191)"/>
<path d="M0 0 C4.95 0 9.9 0 15 0 C14.34 1.32 13.68 2.64 13 4 C15.31 4 17.62 4 20 4 C20 4.99 20 5.98 20 7 C20.66 7 21.32 7 22 7 C21.67 8.32 21.34 9.64 21 11 C21 10.01 21 9.02 21 8 C19.8553125 7.7834375 19.8553125 7.7834375 18.6875 7.5625 C16 7 16 7 13 6 C10.77181559 5.93062938 8.54165476 5.91542916 6.3125 5.9375 C5.13300781 5.94652344 3.95351563 5.95554688 2.73828125 5.96484375 C1.38283203 5.98224609 1.38283203 5.98224609 0 6 C0 5.01 0 4.02 0 3 C1.98 3.495 1.98 3.495 4 4 C4 3.34 4 2.68 4 2 C2.68 1.67 1.36 1.34 0 1 C0 0.67 0 0.34 0 0 Z " fill="#F56809" transform="translate(272,152)"/>
<path d="M0 0 C0.33 0 0.66 0 1 0 C1.09796875 0.80824219 1.1959375 1.61648437 1.296875 2.44921875 C2.36657136 10.49552578 2.36657136 10.49552578 7 17 C7 17.66 7 18.32 7 19 C14.71002444 22.2963148 21.14826043 22.64959145 29.125 19.9375 C29.74375 19.628125 30.3625 19.31875 31 19 C30.67 20.32 30.34 21.64 30 23 C22.3642959 25.32229443 13.42557067 24.76300304 6 22 C6 21.34 6 20.68 6 20 C5.34 20 4.68 20 4 20 C0.8474446 16.8474446 0.07263505 14.99047795 -0.2578125 10.484375 C-0.25072167 6.98150299 -0.1725239 3.49840133 0 0 Z " fill="#D66829" transform="translate(214,138)"/>
<path d="M0 0 C0 3.59760476 -0.89512296 4.2215623 -3 7 C-3.70514846 9.14733927 -3.70514846 9.14733927 -4 11 C-4.8353125 11.1546875 -4.8353125 11.1546875 -5.6875 11.3125 C-9.59306827 12.47361489 -12.70407835 14.80070583 -16.0625 17.0625 C-18.35545852 18.5748769 -20.54076764 19.81004886 -23 21 C-16.38146453 12.81391665 -8.72896357 5.88256241 0 0 Z " fill="#F6F6F6" transform="translate(67,60)"/>
<path d="M0 0 C0 4.07746885 -1.52068051 5.83198065 -4 9 C-5.32860925 9.35169068 -6.66158328 9.68770276 -8 10 C-9.26145768 12.36186139 -9.26145768 12.36186139 -10 15 C-10.33 15.99 -10.66 16.98 -11 18 C-13.0625 18.6875 -13.0625 18.6875 -15 19 C-15.33 20.98 -15.66 22.96 -16 25 C-17.65 24.67 -19.3 24.34 -21 24 C-16.89858235 14.64364099 -7.19595195 7.06074617 0 0 Z " fill="#1B1B1B" transform="translate(39,50)"/>
<path d="M0 0 C0.495 1.98 0.495 1.98 1 4 C-2.83724172 4.90413673 -6.37502274 5.10576898 -10.3125 5.0625 C-11.91544922 5.04896484 -11.91544922 5.04896484 -13.55078125 5.03515625 C-14.35902344 5.02355469 -15.16726563 5.01195312 -16 5 C-16 5.66 -16 6.32 -16 7 C-21.28 7 -26.56 7 -32 7 C-32.33 7.66 -32.66 8.32 -33 9 C-33 7.68 -33 6.36 -33 5 C-31.18628906 4.83564453 -31.18628906 4.83564453 -29.3359375 4.66796875 C-19.35997811 3.71768275 -9.74975046 2.38574644 0 0 Z " fill="#F5D8B2" transform="translate(336,197)"/>
<path d="M0 0 C2 1 2 1 2.8515625 3.39453125 C5.88391537 16.79508056 5.27900093 30.33181617 5 44 C4.67 44 4.34 44 4 44 C2.66666667 29.33333333 1.33333333 14.66666667 0 0 Z " fill="#340A01" transform="translate(334,152)"/>
<path d="M0 0 C2.1450195 3.72962849 3.09943563 7.73475866 4.125 11.875 C4.30675781 12.56980469 4.48851562 13.26460937 4.67578125 13.98046875 C5.70222289 18.07851771 6.20029738 21.74034248 6 26 C4.078125 25.265625 4.078125 25.265625 2 24 C-1.17072449 16.76117617 -0.19970768 7.69984042 0 0 Z " fill="#280607" transform="translate(297,178)"/>
<path d="M0 0 C1.79236067 0.47656412 3.58386897 0.95633498 5.375 1.4375 C6.37273437 1.70433594 7.37046875 1.97117188 8.3984375 2.24609375 C11 3 11 3 13 4 C13.33 3.34 13.66 2.68 14 2 C14.53625 2.33 15.0725 2.66 15.625 3 C18.5391061 4.22699204 20.86867708 4.14233286 24 4 C21.62115735 6.85770059 19.92085669 7.49879419 16.25 7.875 C11.21942904 8.2343265 8.35213738 7.52423968 4 5 C1.5625 2.875 1.5625 2.875 0 1 C0 0.67 0 0.34 0 0 Z " fill="#130302" transform="translate(219,153)"/>
<path d="M0 0 C0.33 0 0.66 0 1 0 C1.01458252 0.65782471 1.02916504 1.31564941 1.04418945 1.9934082 C1.32218317 13.28899032 1.63390083 24.51642254 3.4375 35.6875 C3.55971924 36.44522705 3.68193848 37.2029541 3.80786133 37.98364258 C4.53384903 42.14380214 5.66398302 46.00382478 7 50 C6.625 52.375 6.625 52.375 6 54 C6 53.34 6 52.68 6 52 C5.34 52 4.68 52 4 52 C2.46450769 48.92901538 2.5573183 45.70419623 2.28125 42.3125 C2.12863953 39.97731545 2.12863953 39.97731545 1 38 C-0.14888086 29.45525439 -0.12576416 20.85392608 -0.0625 12.25 C-0.05798828 11.0640625 -0.05347656 9.878125 -0.04882812 8.65625 C-0.03719316 5.77077772 -0.0208484 2.88541787 0 0 Z " fill="#F3C59D" transform="translate(168,60)"/>
<path d="M0 0 C0.99386719 0.00902344 1.98773438 0.01804688 3.01171875 0.02734375 C4.15060547 0.04474609 4.15060547 0.04474609 5.3125 0.0625 C5.3125 0.3925 5.3125 0.7225 5.3125 1.0625 C2.3425 1.0625 -0.6275 1.0625 -3.6875 1.0625 C-3.6875 1.7225 -3.6875 2.3825 -3.6875 3.0625 C-4.3475 3.0625 -5.0075 3.0625 -5.6875 3.0625 C-5.6875 3.7225 -5.6875 4.3825 -5.6875 5.0625 C-6.6775 5.3925 -7.6675 5.7225 -8.6875 6.0625 C-9.99209914 8.67169828 -9.8201594 10.65192615 -9.8125 13.5625 C-9.81507813 14.5421875 -9.81765625 15.521875 -9.8203125 16.53125 C-9.85690053 19.05681054 -9.85690053 19.05681054 -8.6875 21.0625 C-8.64727609 23.3954866 -8.64429753 25.72956666 -8.6875 28.0625 C-9.6775 27.4025 -10.6675 26.7425 -11.6875 26.0625 C-12.19077598 23.45571125 -12.4853896 21.13022416 -12.625 18.5 C-12.66657227 17.77997803 -12.70814453 17.05995605 -12.75097656 16.31811523 C-12.94096526 10.69001665 -12.3253289 5.60978613 -8.6875 1.0625 C-5.53819107 0.01273036 -3.29935544 -0.03881595 0 0 Z " fill="#DA6726" transform="translate(279.6875,156.9375)"/>
<path d="M0 0 C2 2 2 2 2.25 5 C2 8 2 8 0 10 C-0.24253813 12.21072977 -0.24253813 12.21072977 -0.125 14.625 C-0.10695312 15.44226563 -0.08890625 16.25953125 -0.0703125 17.1015625 C-0.04710937 17.72804687 -0.02390625 18.35453125 0 19 C0.66 19 1.32 19 2 19 C2 20.32 2 21.64 2 23 C0.125 22.6875 0.125 22.6875 -2 22 C-4.72611036 17.91083446 -4.62984724 14.80441619 -4 10 C-2.89821881 6.55094584 -1.53298058 3.27811473 0 0 Z " fill="#040511" transform="translate(222,130)"/>
<path d="M0 0 C0.99257812 0.03617432 1.98515625 0.07234863 3.0078125 0.10961914 C4.59142578 0.18877563 4.59142578 0.18877563 6.20703125 0.26953125 C7.27953125 0.31779053 8.35203125 0.3660498 9.45703125 0.41577148 C18.18252046 0.88143569 26.51341231 2.0931005 35.01953125 4.08203125 C35.01953125 4.41203125 35.01953125 4.74203125 35.01953125 5.08203125 C18.01543289 5.41399846 18.01543289 5.41399846 11.01953125 3.08203125 C9.53987199 2.93630067 8.05549282 2.83539857 6.5703125 2.765625 C5.72275391 2.72373047 4.87519531 2.68183594 4.00195312 2.63867188 C3.12087891 2.59935547 2.23980469 2.56003906 1.33203125 2.51953125 C0.43935547 2.47634766 -0.45332031 2.43316406 -1.37304688 2.38867188 C-3.57536983 2.28267772 -5.77780348 2.18061074 -7.98046875 2.08203125 C-4.66573793 -0.12778929 -3.82650538 -0.14339413 0 0 Z " fill="#C7642C" transform="translate(188.98046875,34.91796875)"/>
<path d="M0 0 C6.12415343 3.84282322 12.16865561 7.72368078 18 12 C13.2771977 13.47717605 9.37229933 12.18614967 5 10 C5.33 9.34 5.66 8.68 6 8 C3.03 7.505 3.03 7.505 0 7 C0 4.69 0 2.38 0 0 Z " fill="#FDEDDB" transform="translate(216,173)"/>
<path d="M0 0 C3.51240676 1.17080225 4.47221631 2.55909642 6.2109375 5.7578125 C8.02824032 10.92183141 7.71341398 16.85975805 6 22 C5.34 22 4.68 22 4 22 C3.896875 22.598125 3.79375 23.19625 3.6875 23.8125 C2.90175967 26.31258286 2.03081147 27.37535082 0 29 C-0.66 29 -1.32 29 -2 29 C-2 28.34 -2 27.68 -2 27 C-1.34 27 -0.68 27 0 27 C0 26.34 0 25.68 0 25 C0.66 25 1.32 25 2 25 C2.33 23.68 2.66 22.36 3 21 C3.66 21 4.32 21 5 21 C4.85879286 19.06215735 4.71187127 17.12473045 4.5625 15.1875 C4.48128906 14.10855469 4.40007812 13.02960938 4.31640625 11.91796875 C4.09787539 8.94010095 4.09787539 8.94010095 3 6 C2.01 5.67 1.02 5.34 0 5 C0 3.35 0 1.7 0 0 Z " fill="#3D0D02" transform="translate(245,128)"/>
<path d="M0 0 C2.475 0.495 2.475 0.495 5 1 C5.33 1.99 5.66 2.98 6 4 C6.66 4.33 7.32 4.66 8 5 C10.88949541 11.62176032 13 18.72664374 13 26 C9.38603003 23.28430002 8.7567157 19.39821137 7.625 15.25 C5.90412811 9.30577457 4.13676364 4.72772987 0 0 Z " fill="#CE672C" transform="translate(288,159)"/>
<path d="M0 0 C2.0830977 2.0830977 3.2948161 4.22977313 4.71484375 6.7890625 C6.87034832 10.49731656 9.25578892 14.05976253 11.609375 17.64453125 C13 20 13 20 13 22 C13.66 22 14.32 22 15 22 C16.625 24.5 16.625 24.5 18 27 C13.45377004 26.47543501 13.45377004 26.47543501 11 25 C9.1853931 21.83010857 8.1580623 18.45243924 7 15 C5.15191559 11.45167793 4.36122596 10.24081731 1 8 C0.29947539 5.336937 0.22255182 2.75964263 0 0 Z " fill="#F8CEA9" transform="translate(182,130)"/>
<path d="M0 0 C0.66 0.33 1.32 0.66 2 1 C1.67257813 1.47953125 1.34515625 1.9590625 1.0078125 2.453125 C-0.47674371 6.20479418 -0.21108873 9.75680741 -0.125 13.75 C-0.11597656 14.54277344 -0.10695312 15.33554688 -0.09765625 16.15234375 C-0.07417012 18.10169281 -0.03830137 20.05088575 0 22 C-0.66 22 -1.32 22 -2 22 C-2.33 22.66 -2.66 23.32 -3 24 C-5.02692129 21.97307871 -4.18507217 17.96251392 -4.1875 15.1875 C-4.19974609 14.46240234 -4.21199219 13.73730469 -4.22460938 12.99023438 C-4.23509474 9.17006722 -4.14860342 6.23564389 -2 3 C-1.34 3 -0.68 3 0 3 C0 2.01 0 1.02 0 0 Z " fill="#F2660D" transform="translate(214,128)"/>
<path d="M0 0 C7.81636537 1.91722169 7.81636537 1.91722169 10 5 C10 5.66 10 6.32 10 7 C10.763125 7.144375 11.52625 7.28875 12.3125 7.4375 C15 8 15 8 18 9 C18 9.99 18 10.98 18 12 C13.79694865 10.86404018 10.04235886 9.1126616 6.1875 7.125 C4.75470703 6.38636719 4.75470703 6.38636719 3.29296875 5.6328125 C1 4 1 4 0.17578125 1.8046875 C0.11777344 1.20914063 0.05976563 0.61359375 0 0 Z " fill="#E37229" transform="translate(230,180)"/>
<path d="M0 0 C3.98785868 3.39934209 5.65420993 7.09045212 7.625 11.8125 C7.9240625 12.49892578 8.223125 13.18535156 8.53125 13.89257812 C10.37238993 18.1980757 11.80464045 22.47301953 13 27 C10 26 10 26 9.05078125 24.2578125 C8.80714844 23.55398437 8.56351562 22.85015625 8.3125 22.125 C8.06113281 21.42632812 7.80976563 20.72765625 7.55078125 20.0078125 C7 18 7 18 7 15 C6.34 15 5.68 15 5 15 C3.33333333 10 1.66666667 5 0 0 Z " fill="#C86932" transform="translate(314,97)"/>
<path d="M0 0 C2.96175123 0.61277612 4.38058783 1.25372522 7 3 C7.1875 5.625 7.1875 5.625 7 8 C7.99 8 8.98 8 10 8 C10 8.66 10 9.32 10 10 C10.66 10 11.32 10 12 10 C12.33 11.32 12.66 12.64 13 14 C11.68 13.67 10.36 13.34 9 13 C9 12.34 9 11.68 9 11 C8.34 11 7.68 11 7 11 C6.67 9.68 6.34 8.36 6 7 C4.35 6.67 2.7 6.34 1 6 C0.67 4.02 0.34 2.04 0 0 Z " fill="#F06818" transform="translate(201,153)"/>
<path d="M0 0 C1.17546556 0.65102708 2.34561699 1.31228246 3.5 2 C0.5 3 0.5 3 -2.5 2 C-8.57851754 1.67090829 -14.51123956 1.93533148 -20.5 3 C-15.04266213 -3.3190228 -7.0940223 -3.54073325 0 0 Z " fill="#3F0B00" transform="translate(241.5,125)"/>
<path d="M0 0 C-2.58323124 2.9882675 -5.55535237 4.49429547 -9.0625 6.25 C-10.12597656 6.79140625 -11.18945312 7.3328125 -12.28515625 7.890625 C-13.18105469 8.25671875 -14.07695312 8.6228125 -15 9 C-15.66 8.67 -16.32 8.34 -17 8 C-16.67 7.34 -16.34 6.68 -16 6 C-15.01 6 -14.02 6 -13 6 C-12.67 4.68 -12.34 3.36 -12 2 C-10.68 2 -9.36 2 -8 2 C-8 1.34 -8 0.68 -8 0 C-4.71303767 -0.79953138 -3.28976808 -1.09658936 0 0 Z " fill="#121212" transform="translate(277,274)"/>
<path d="M0 0 C2.475 0.99 2.475 0.99 5 2 C5 3.98 5 5.96 5 8 C5.639375 8.2475 6.27875 8.495 6.9375 8.75 C9 10 9 10 9.75 11.625 C10.1155134 15.09737727 10.05818928 18.50864298 10 22 C8.47241424 19.70862136 7.38902018 17.79644161 6.30859375 15.3125 C6.00373047 14.61382812 5.69886719 13.91515625 5.38476562 13.1953125 C5.07216797 12.47085938 4.75957031 11.74640625 4.4375 11 C4.12103516 10.27554688 3.80457031 9.55109375 3.47851562 8.8046875 C2.2096179 5.88433689 1.00789928 3.02369783 0 0 Z " fill="#320A01" transform="translate(316,98)"/>
<path d="M0 0 C3.93748458 -0.02898816 7.87494179 -0.04679464 11.8125 -0.0625 C12.93205078 -0.07087891 14.05160156 -0.07925781 15.20507812 -0.08789062 C16.81479492 -0.09272461 16.81479492 -0.09272461 18.45703125 -0.09765625 C19.9416687 -0.10551147 19.9416687 -0.10551147 21.45629883 -0.11352539 C24 0 24 0 27 1 C28.89212737 1.22179785 30.78884472 1.40614015 32.6875 1.5625 C33.68136719 1.64628906 34.67523438 1.73007812 35.69921875 1.81640625 C36.83810547 1.90728516 36.83810547 1.90728516 38 2 C38 2.33 38 2.66 38 3 C31.26093322 3.85685729 25.47655226 4.15045858 18.8671875 2.546875 C12.67151133 1.3651384 6.29023011 1.29656172 0 1 C0 0.67 0 0.34 0 0 Z " fill="#ED6819" transform="translate(176,37)"/>
<path d="M0 0 C0.99 0.495 0.99 0.495 2 1 C2 2.98 2 4.96 2 7 C2.83144531 6.855625 3.66289062 6.71125 4.51953125 6.5625 C5.60621094 6.376875 6.69289063 6.19125 7.8125 6 C9.43091797 5.7215625 9.43091797 5.7215625 11.08203125 5.4375 C14 5 14 5 17 5 C17 5.99 17 6.98 17 8 C11.94997778 9.03590199 7.12583611 9.10251672 2 9 C0.25434889 5.78360346 -0.204437 3.67986596 0 0 Z " fill="#ED6718" transform="translate(303,192)"/>
<path d="M0 0 C2.0343459 1.41519715 2.90410393 2.54982123 3.421875 4.98046875 C3.66273952 6.98176954 3.83532741 8.9909944 4 11 C5.65 11 7.3 11 9 11 C8.67 11.99 8.34 12.98 8 14 C7.34 14 6.68 14 6 14 C6 15.65 6 17.3 6 19 C5.01 19 4.02 19 3 19 C1.61289091 16.22578182 1.69442468 13.71496369 1.5 10.625 C1.26856896 6.96343029 1.04234665 3.52660615 0 0 Z " fill="#E76F1C" transform="translate(174,101)"/>
<path d="M0 0 C3.63 0 7.26 0 11 0 C7.77208445 2.1519437 6.71599191 2.20086443 3 2 C1.22738492 6.03077255 0.26072729 10.00464455 -0.625 14.3125 C-0.88539063 15.56675781 -1.14578125 16.82101563 -1.4140625 18.11328125 C-1.60742188 19.06589844 -1.80078125 20.01851562 -2 21 C-2.33 21 -2.66 21 -3 21 C-3.43230491 13.65081658 -1.81774185 7.09784913 0 0 Z " fill="#CD7B41" transform="translate(173,35)"/>
<path d="M0 0 C7.11683282 0.91830101 13.69679962 4.76758955 20 8 C20 8.66 20 9.32 20 10 C21.98 10.66 23.96 11.32 26 12 C22.35839192 13.21386936 21.66834531 12.6674695 18.3125 11.0625 C17.50425781 10.68222656 16.69601562 10.30195312 15.86328125 9.91015625 C15.24839844 9.60980469 14.63351562 9.30945312 14 9 C14 8.34 14 7.68 14 7 C13.34 7 12.68 7 12 7 C12 6.34 12 5.68 12 5 C11.319375 4.87625 10.63875 4.7525 9.9375 4.625 C6.5722588 3.90899123 3.29986575 2.97054875 0 2 C0 1.34 0 0.68 0 0 Z " fill="#C1652F" transform="translate(256,49)"/>
<path d="M0 0 C4.29 0.99 8.58 1.98 13 3 C10 6 10 6 6.42578125 6.29296875 C5.05438087 6.27309338 3.68313595 6.23741111 2.3125 6.1875 C1.61060547 6.17396484 0.90871094 6.16042969 0.18554688 6.14648438 C-1.54329829 6.11120182 -3.27174765 6.05739583 -5 6 C-5 5.34 -5 4.68 -5 4 C-2.03 4 0.94 4 4 4 C2.68 2.68 1.36 1.36 0 0 Z " fill="#F56511" transform="translate(229,42)"/>
<path d="M0 0 C2.00131738 3.00197607 2.66171325 4.47661341 3 8 C2.22265625 10.67578125 2.22265625 10.67578125 1.0625 13.3125 C0.68222656 14.19550781 0.30195312 15.07851562 -0.08984375 15.98828125 C-0.54037109 16.98408203 -0.54037109 16.98408203 -1 18 C-1.33 18 -1.66 18 -2 18 C-2.054348 15.9377952 -2.09294961 13.87517184 -2.125 11.8125 C-2.14820313 10.66394531 -2.17140625 9.51539063 -2.1953125 8.33203125 C-2.00484152 5.08259628 -1.39360127 2.91339479 0 0 Z " fill="#0C0C0C" transform="translate(2,216)"/>
<path d="M0 0 C0.5534764 2.07553648 1 3.84365964 1 6 C1.66 6.33 2.32 6.66 3 7 C3.33 7.99 3.66 8.98 4 10 C4.66 10 5.32 10 6 10 C7.0625 12.375 7.0625 12.375 8 15 C7.67 15.66 7.34 16.32 7 17 C5 17 5 17 3.4921875 15.53125 C0.62721601 11.93273508 -1.41189103 9.28308633 -1.4375 4.5625 C-1 1 -1 1 0 0 Z " fill="#161616" transform="translate(145,195)"/>
<path d="M0 0 C0.66 0 1.32 0 2 0 C3.60995028 2.87444564 4.29564831 5.16146964 4.5625 8.4375 C4.86250244 11.68395497 5.28056566 14.81393364 6 18 C6.66 18 7.32 18 8 18 C8 21.63 8 25.26 8 29 C7.67 29 7.34 29 7 29 C6.82984375 28.2471875 6.6596875 27.494375 6.484375 26.71875 C4.44506104 17.78048029 2.24762419 8.88781341 0 0 Z " fill="#471003" transform="translate(326,120)"/>
<path d="M0 0 C3.67591895 1.0210886 4.9339798 1.91435217 7.3125 5 C9 8 9 8 9 10 C9.99 10.33 10.98 10.66 12 11 C12.33 12.65 12.66 14.3 13 16 C12.01 16 11.02 16 10 16 C6 9.25 6 9.25 6 7 C5.34 7 4.68 7 4 7 C2.02 3.535 2.02 3.535 0 0 Z " fill="#360C04" transform="translate(304,81)"/>
<path d="M0 0 C1.27875 0.28875 2.5575 0.5775 3.875 0.875 C4.95394531 1.11863281 4.95394531 1.11863281 6.0546875 1.3671875 C8 2 8 2 10 4 C11.5159375 4.433125 11.5159375 4.433125 13.0625 4.875 C14.5165625 5.431875 14.5165625 5.431875 16 6 C16.875 8.125 16.875 8.125 17 10 C17.66 10 18.32 10 19 10 C20.625 11.5 20.625 11.5 22 13 C21.67 13.66 21.34 14.32 21 15 C20.01 14.34 19.02 13.68 18 13 C18 12.34 18 11.68 18 11 C17.278125 10.731875 16.55625 10.46375 15.8125 10.1875 C13.02047083 9.00864324 10.57013814 7.59765344 8 6 C7.34 5.67 6.68 5.34 6 5 C6 4.34 6 3.68 6 3 C4.02 2.34 2.04 1.68 0 1 C0 0.67 0 0.34 0 0 Z " fill="#401004" transform="translate(270,54)"/>
<path d="M0 0 C-0.78375 0.886875 -1.5675 1.77375 -2.375 2.6875 C-7.0349928 8.36110706 -7.4727062 13.85378136 -8 21 C-8.33 21 -8.66 21 -9 21 C-9.0816082 18.62429457 -9.14077222 16.25144159 -9.1875 13.875 C-9.22520508 12.87726563 -9.22520508 12.87726563 -9.26367188 11.859375 C-9.33307702 7.1398251 -8.51443021 3.99029142 -6 0 C-3.37419385 -1.19354825 -2.59016798 -1.29508399 0 0 Z " fill="#DB6933" transform="translate(222,127)"/>
<path d="M0 0 C0.66 0.66 1.32 1.32 2 2 C-1.52060163 6.55680708 -4.46053728 9.90731408 -10 12 C-10.99 12 -11.98 12 -13 12 C-13 11.34 -13 10.68 -13 10 C-11.6696875 9.443125 -11.6696875 9.443125 -10.3125 8.875 C-6.40800851 6.66491048 -4.74047451 4.50171743 -2 1 C-1.34 0.67 -0.68 0.34 0 0 Z " fill="#E6E6E6" transform="translate(270,243)"/>
<path d="M0 0 C3 3 6 6 9 9 C5.7169902 10.6415049 2.57454967 9.51888624 -1 9 C-0.67 6.03 -0.34 3.06 0 0 Z " fill="#EDEDED" transform="translate(57,264)"/>
<path d="M0 0 C6.82423338 1.23416987 13.39367844 2.8915995 20 5 C20 5.33 20 5.66 20 6 C18.06318839 6.08107583 16.1254066 6.13922475 14.1875 6.1875 C13.10855469 6.22230469 12.02960938 6.25710937 10.91796875 6.29296875 C7.631312 5.96298313 7.02393258 5.46821047 5 3 C2.40084462 1.80972016 2.40084462 1.80972016 0 1 C0 0.67 0 0.34 0 0 Z " fill="#FCEACA" transform="translate(256,196)"/>
<path d="M0 0 C5.28 0.33 10.56 0.66 16 1 C16 1.66 16 2.32 16 3 C13.20251159 3.93249614 11.45679119 4.13476152 8.5625 4.125 C7.41974609 4.12886719 7.41974609 4.12886719 6.25390625 4.1328125 C4.04684141 4.00276015 2.12030724 3.60856199 0 3 C0 2.01 0 1.02 0 0 Z " fill="#ED6711" transform="translate(224,161)"/>
<path d="M0 0 C1 2 1 2 0.1875 4.5 C-1 7 -1 7 -3 9 C-3.31863689 11.10589077 -3.31863689 11.10589077 -3.25 13.4375 C-3.25515625 14.21996094 -3.2603125 15.00242188 -3.265625 15.80859375 C-3.13176831 18.29044107 -3.13176831 18.29044107 -1 21 C-1.375 23.1875 -1.375 23.1875 -2 25 C-5.56203655 19.50852698 -5.71568631 14.33759064 -5 8 C-3.66792442 4.54871328 -2.59003919 2.59003919 0 0 Z " fill="#490F04" transform="translate(220,128)"/>
<path d="M0 0 C0.33 0 0.66 0 1 0 C1 1.65 1 3.3 1 5 C-2.82745451 6.74685308 -6.12442723 7.34886333 -10.3125 7.625 C-11.38113281 7.69976562 -12.44976562 7.77453125 -13.55078125 7.8515625 C-14.76314453 7.92503906 -14.76314453 7.92503906 -16 8 C-16 7.34 -16 6.68 -16 6 C-10.97350697 4.42922093 -6.23880078 3.55145271 -1 3 C-0.67 2.01 -0.34 1.02 0 0 Z " fill="#DC6E25" transform="translate(336,192)"/>
<path d="M0 0 C0.66 0.66 1.32 1.32 2 2 C1.67 2.66 1.34 3.32 1 4 C2.65 4.33 4.3 4.66 6 5 C5.67 5.99 5.34 6.98 5 8 C6.98 8 8.96 8 11 8 C11 8.33 11 8.66 11 9 C4.40770855 9.7013076 0.50623443 7.49602186 -5 4 C-4.360625 3.71125 -3.72125 3.4225 -3.0625 3.125 C-0.84793921 2.17176549 -0.84793921 2.17176549 0 0 Z " fill="#2E2E2E" transform="translate(110,152)"/>
<path d="M0 0 C0.33 0 0.66 0 1 0 C0.43657596 10.00976758 -0.1831954 20.00717773 -1 30 C-1.33 30 -1.66 30 -2 30 C-2.05850924 26.31256766 -2.09376673 22.6252563 -2.125 18.9375 C-2.14175781 17.89916016 -2.15851563 16.86082031 -2.17578125 15.79101562 C-2.21183286 10.11288716 -1.92971166 5.35608946 0 0 Z " fill="#F2650B" transform="translate(173,42)"/>
<path d="M0 0 C0.66 0.33 1.32 0.66 2 1 C-0.44773169 6.20142984 -4.40211381 8.82188865 -9 12 C-9.66 11.34 -10.32 10.68 -11 10 C-10.01 9.67 -9.02 9.34 -8 9 C-7.731875 8.4225 -7.46375 7.845 -7.1875 7.25 C-5.44866056 3.95535686 -2.92354664 2.28799302 0 0 Z " fill="#EAEAEA" transform="translate(48,39)"/>
<path d="M0 0 C0.33 0 0.66 0 1 0 C1 8.58 1 17.16 1 26 C-0.98 26.99 -0.98 26.99 -3 28 C-2.86722656 27.319375 -2.73445313 26.63875 -2.59765625 25.9375 C-1.02441995 17.30192558 -0.42195975 8.7501128 0 0 Z " fill="#F4F4F4" transform="translate(363,224)"/>
<path d="M0 0 C5.8576351 7.72142808 7.34108374 13.41175721 7 23 C6.690625 22.360625 6.38125 21.72125 6.0625 21.0625 C5.1654837 19.06389179 5.1654837 19.06389179 4 18 C3.79087297 16.56806079 3.63208021 15.12858946 3.5 13.6875 C3.22292575 10.69410854 2.79659016 7.90091582 2 5 C1.34 5 0.68 5 0 5 C0 3.35 0 1.7 0 0 Z " fill="#180101" transform="translate(326,115)"/>
<path d="M0 0 C0.33 0 0.66 0 1 0 C1.20496094 1.07121094 1.40992188 2.14242187 1.62109375 3.24609375 C1.89302709 4.64326851 2.16517352 6.04040181 2.4375 7.4375 C2.57220703 8.14455078 2.70691406 8.85160156 2.84570312 9.58007812 C3.28406898 13.08429264 3.28406898 13.08429264 5 16 C5.07179964 17.51928038 5.08392007 19.04167482 5.0625 20.5625 C5.05347656 21.38878906 5.04445312 22.21507813 5.03515625 23.06640625 C5.02355469 23.70449219 5.01195312 24.34257813 5 25 C0.77267932 17.0967483 -0.51950207 8.87001678 0 0 Z " fill="#D27739" transform="translate(171,89)"/>
<path d="M0 0 C0.33 0.66 0.66 1.32 1 2 C2.65 1.34 4.3 0.68 6 0 C3.10933941 9.59453303 3.10933941 9.59453303 0 13 C-1.06671952 9.79984144 -0.94845472 8.11455706 -0.5625 4.8125 C-0.46066406 3.91144531 -0.35882813 3.01039063 -0.25390625 2.08203125 C-0.17011719 1.39496094 -0.08632812 0.70789063 0 0 Z " fill="#EFEFEF" transform="translate(153,233)"/>
<path d="M0 0 C1.70884005 1.62339805 3.37446717 3.29319053 5 5 C5 5.66 5 6.32 5 7 C5.66 7 6.32 7 7 7 C8.32 9.64 9.64 12.28 11 15 C9.68 14.34 8.36 13.68 7 13 C6.63837971 11.67405895 6.30271961 10.34061543 6 9 C5.01 8.67 4.02 8.34 3 8 C1.3125 6.75 1.3125 6.75 0 5 C-0.1875 2.3125 -0.1875 2.3125 0 0 Z " fill="#C66730" transform="translate(303,81)"/>
<path d="M0 0 C0.66 0.33 1.32 0.66 2 1 C2 1.99 2 2.98 2 4 C0.64453125 5.24609375 0.64453125 5.24609375 -1.1875 6.4375 C-4.25058223 8.49200638 -7.14271585 10.66222206 -10 13 C-10.66 12.67 -11.32 12.34 -12 12 C-8.04 8.04 -4.08 4.08 0 0 Z " fill="#D8D8D8" transform="translate(56,68)"/>
<path d="M0 0 C3.63 0.33 7.26 0.66 11 1 C11 1.99 11 2.98 11 4 C12.051875 4.12375 13.10375 4.2475 14.1875 4.375 C17.45958771 4.91140782 20.00536076 5.63880035 23 7 C23 7.66 23 8.32 23 9 C18.14580734 8.40802528 14.35759324 7.13607512 10 5 C9.67 4.34 9.34 3.68 9 3 C7.13507598 2.61004898 7.13507598 2.61004898 5 2.5 C2.8125 2.34375 2.8125 2.34375 1 2 C0.67 1.34 0.34 0.68 0 0 Z " fill="#E66B1E" transform="translate(245,47)"/>
<path d="M0 0 C2.5 1.1875 2.5 1.1875 5 3 C5.3125 5.6875 5.3125 5.6875 5 8 C4.01 8.33 3.02 8.66 2 9 C0.35 6.69 -1.3 4.38 -3 2 C-2.01 1.34 -1.02 0.68 0 0 Z " fill="#141414" transform="translate(59,260)"/>
<path d="M0 0 C7.51869512 -0.59672183 11.74031045 0.85647028 18 5 C14.80421108 6.59789446 12.34747444 5.1581304 9 4.1875 C7.741875 3.83042969 6.48375 3.47335938 5.1875 3.10546875 C2 2 2 2 0 0 Z " fill="#DA7D3F" transform="translate(248,192)"/>
<path d="M0 0 C0.99 1.0209375 0.99 1.0209375 2 2.0625 C4.94015715 5.02800333 8.11790677 7.6844263 11.328125 10.3515625 C13 12 13 12 14 15 C13.01 15 12.02 15 11 15 C11 14.01 11 13.02 11 12 C10.071875 11.7834375 10.071875 11.7834375 9.125 11.5625 C7 11 7 11 5 10 C5 9.34 5 8.68 5 8 C4.34 8 3.68 8 3 8 C0 2.25 0 2.25 0 0 Z " fill="#FCDFBD" transform="translate(200,157)"/>
<path d="M0 0 C0.66 0.33 1.32 0.66 2 1 C2 4.96 2 8.92 2 13 C1.34 13 0.68 13 0 13 C-0.33 14.32 -0.66 15.64 -1 17 C-1.66 17 -2.32 17 -3 17 C-3 17.66 -3 18.32 -3 19 C-3.66 19 -4.32 19 -5 19 C-4.1875 16.0625 -4.1875 16.0625 -3 13 C-2.01 12.67 -1.02 12.34 0 12 C0 8.04 0 4.08 0 0 Z " fill="#140205" transform="translate(248,136)"/>
<path d="M0 0 C0.66 0 1.32 0 2 0 C1.17321655 7.02765937 0.09751783 14.00998353 -1 21 C-1.33 21 -1.66 21 -2 21 C-2.10130722 14.24618538 -2.13298734 7.67203653 -1 1 C-0.67 0.67 -0.34 0.34 0 0 Z " fill="#FBE2BF" transform="translate(171,35)"/>
<path d="M0 0 C10.83766816 -0.92017937 10.83766816 -0.92017937 13.6875 1.3359375 C14.75 3 14.75 3 16 6 C12 6 12 6 10.25 4.5 C9.63125 3.7575 9.63125 3.7575 9 3 C8.67 3.66 8.34 4.32 8 5 C8 4.01 8 3.02 8 2 C5.36 1.67 2.72 1.34 0 1 C0 0.67 0 0.34 0 0 Z " fill="#411206" transform="translate(276,158)"/>
<path d="M0 0 C0.33 0 0.66 0 1 0 C0.67 2.64 0.34 5.28 0 8 C0.66 8 1.32 8 2 8 C2 8.66 2 9.32 2 10 C0.9275 10.12375 -0.145 10.2475 -1.25 10.375 C-4.37863615 10.89643936 -6.33480424 11.40088254 -9 13 C-8.875 11.125 -8.875 11.125 -8 9 C-7.030625 8.731875 -6.06125 8.46375 -5.0625 8.1875 C-3.5465625 7.5996875 -3.5465625 7.5996875 -2 7 C-0.53977565 3.47548841 -0.53977565 3.47548841 0 0 Z " fill="#EF6A13" transform="translate(253,148)"/>
<path d="M0 0 C0 0.66 0 1.32 0 2 C-6.435 4.97 -6.435 4.97 -13 8 C-11.86280581 4.58841744 -10.95657056 3.88145399 -8 2 C-7.34 2 -6.68 2 -6 2 C-6 1.34 -6 0.68 -6 0 C-3 -1 -3 -1 0 0 Z " fill="#F1F1F1" transform="translate(77,25)"/>
<path d="M0 0 C5.65555306 3.39333183 7.97839228 8.93517683 10 15 C9.67 15.66 9.34 16.32 9 17 C5.57482643 14.71655095 5.27304106 13.69539895 3.9375 9.9375 C2.85294935 6.2132816 2.85294935 6.2132816 0 4 C0 2.68 0 1.36 0 0 Z " fill="#E8691A" transform="translate(309,92)"/>
<path d="M0 0 C2.97 0 5.94 0 9 0 C5.8075721 3.1924279 5.27809961 3.4384844 1.0625 3.8125 C-0.21947266 3.94591797 -0.21947266 3.94591797 -1.52734375 4.08203125 C-4.21956284 3.99271592 -5.71280506 3.37443965 -8 2 C-5.36 2 -2.72 2 0 2 C0 1.34 0 0.68 0 0 Z " fill="#431202" transform="translate(234,157)"/>
<path d="M0 0 C0.33 0 0.66 0 1 0 C1.14695313 1.19496094 1.14695313 1.19496094 1.296875 2.4140625 C2.17364593 8.62704273 2.94805192 13.13766231 7 18 C3 18 3 18 1.26171875 16.453125 C-0.4608961 13.10389241 -0.29149691 10.49388889 -0.1875 6.75 C-0.16042969 5.48671875 -0.13335937 4.2234375 -0.10546875 2.921875 C-0.07066406 1.95765625 -0.03585938 0.9934375 0 0 Z " fill="#BB5A24" transform="translate(214,138)"/>
<path d="M0 0 C2.54359211 0.98072521 3.75272887 1.51405018 5.01171875 3.98828125 C5.34623047 5.13876953 5.34623047 5.13876953 5.6875 6.3125 C5.9246875 7.11171875 6.161875 7.9109375 6.40625 8.734375 C7.0375847 11.14341529 7.60330723 13.54050483 8 16 C4.85751322 14.42875661 4.29871176 11.7022315 2.875 8.5625 C2.33617187 7.38816406 1.79734375 6.21382813 1.2421875 5.00390625 C0 2 0 2 0 0 Z " fill="#D27833" transform="translate(178,120)"/>
<path d="M0 0 C2.4375 0.8125 2.4375 0.8125 5 2 C5.33 2.99 5.66 3.98 6 5 C6.99 4.67 7.98 4.34 9 4 C10.5625 5.75 10.5625 5.75 12 8 C11.6875 10.25 11.6875 10.25 11 12 C10.484375 11.29875 9.96875 10.5975 9.4375 9.875 C6.96009764 6.95293568 4.3488777 4.64572384 1.390625 2.234375 C0.93171875 1.82703125 0.4728125 1.4196875 0 1 C0 0.67 0 0.34 0 0 Z " fill="#3E0F04" transform="translate(292,69)"/>
<path d="M0 0 C2.64752004 2.57784846 4.94432065 4.91648098 7 8 C6.01 8.33 5.02 8.66 4 9 C3.34 8.67 2.68 8.34 2 8 C2 7.34 2 6.68 2 6 C0.68 5.67 -0.64 5.34 -2 5 C-1.34 3.35 -0.68 1.7 0 0 Z " fill="#171717" transform="translate(74,244)"/>
<path d="M0 0 C0.58265625 0.21527344 1.1653125 0.43054688 1.765625 0.65234375 C-0.28671185 2.90014125 -1.24104761 3.65456795 -4.234375 4.65234375 C-4.96761296 6.66742733 -4.96761296 6.66742733 -5.234375 8.65234375 C-5.894375 8.32234375 -6.554375 7.99234375 -7.234375 7.65234375 C-7.234375 6.99234375 -7.234375 6.33234375 -7.234375 5.65234375 C-7.894375 5.32234375 -8.554375 4.99234375 -9.234375 4.65234375 C-8.16330383 3.78285058 -7.07691556 2.9322017 -5.984375 2.08984375 C-5.38109375 1.61417969 -4.7778125 1.13851562 -4.15625 0.6484375 C-2.234375 -0.34765625 -2.234375 -0.34765625 0 0 Z " fill="#161616" transform="translate(113.234375,124.34765625)"/>
<path d="M0 0 C1.4540625 0.0309375 1.4540625 0.0309375 2.9375 0.0625 C2.01097299 1.23789996 1.07086613 2.40260577 0.125 3.5625 C-0.39707031 4.2121875 -0.91914063 4.861875 -1.45703125 5.53125 C-3.0625 7.0625 -3.0625 7.0625 -6.0625 7.0625 C-3.83347902 0.07823427 -3.83347902 0.07823427 0 0 Z " fill="#E9E9E9" transform="translate(29.0625,56.9375)"/>
<path d="M0 0 C4.62 0 9.24 0 14 0 C14 0.99 14 1.98 14 3 C14.66 3 15.32 3 16 3 C15.67 4.32 15.34 5.64 15 7 C15 6.01 15 5.02 15 4 C14.28457031 3.85691406 13.56914062 3.71382812 12.83203125 3.56640625 C8.5546875 2.7109375 4.27734375 1.85546875 0 1 C0 0.67 0 0.34 0 0 Z " fill="#ED691B" transform="translate(278,156)"/>
<path d="M0 0 C0.99 0.33 1.98 0.66 3 1 C3.99 1 4.98 1 6 1 C6.66 2.98 7.32 4.96 8 7 C7.01 7.33 6.02 7.66 5 8 C3.02 5.69 1.04 3.38 -1 1 C-0.67 0.67 -0.34 0.34 0 0 Z " fill="#E1E1E1" transform="translate(309,48)"/>
<path d="M0 0 C1 2 1 2 0.44140625 4.1640625 C0.15136719 4.97617187 -0.13867188 5.78828125 -0.4375 6.625 C-0.72496094 7.44226563 -1.01242187 8.25953125 -1.30859375 9.1015625 C-1.65083984 10.04128906 -1.65083984 10.04128906 -2 11 C-2.33 10.01 -2.66 9.02 -3 8 C-3.66 8 -4.32 8 -5 8 C-5.33 8.66 -5.66 9.32 -6 10 C-6.33 9.01 -6.66 8.02 -7 7 C-4.69 4.69 -2.38 2.38 0 0 Z " fill="#E5E5E5" transform="translate(289,264)"/>
<path d="M0 0 C0.66 1.32 1.32 2.64 2 4 C1.278125 4.391875 0.55625 4.78375 -0.1875 5.1875 C-3.227326 7.14649898 -5.52127727 9.37963597 -8 12 C-8 11.34 -8 10.68 -8 10 C-8.66 9.34 -9.32 8.68 -10 8 C-9.0925 7.608125 -8.185 7.21625 -7.25 6.8125 C-3.85881606 4.9212628 -2.20967163 3.1445327 0 0 Z " fill="#DFDFDF" transform="translate(197,205)"/>
<path d="M0 0 C2.64836661 3.12988781 4.0048268 6.0193072 5 10 C4.625 12.375 4.625 12.375 4 14 C-0.65870787 6.18539326 -0.65870787 6.18539326 -1 3 C-0.67 2.01 -0.34 1.02 0 0 Z " fill="#370F03" transform="translate(292,164)"/>
<path d="M0 0 C2 2 2 2 2.125 5.125 C2.08375 6.07375 2.0425 7.0225 2 8 C-0.31 8.66 -2.62 9.32 -5 10 C-3.66511872 6.40608886 -2.03977277 3.24509304 0 0 Z " fill="#161616" transform="translate(13,79)"/>
<path d="M0 0 C2.76276177 0.52268466 5.3260876 1.10869587 8 2 C8 2.66 8 3.32 8 4 C8.78375 4.12375 9.5675 4.2475 10.375 4.375 C13 5 13 5 15 7 C10.04192718 6.50419272 6.2828013 5.58960079 2 3 C1.34 2.01 0.68 1.02 0 0 Z " fill="#260402" transform="translate(261,48)"/>
<path d="M0 0 C0.66 0.33 1.32 0.66 2 1 C2 1.66 2 2.32 2 3 C1.071875 3.680625 1.071875 3.680625 0.125 4.375 C-2.11515073 5.84174937 -2.11515073 5.84174937 -3.0625 8.125 C-3.371875 8.74375 -3.68125 9.3625 -4 10 C-4.99 10.33 -5.98 10.66 -7 11 C-7.99 10.34 -8.98 9.68 -10 9 C-9.44570313 8.60167969 -8.89140625 8.20335937 -8.3203125 7.79296875 C-7.59585937 7.26316406 -6.87140625 6.73335937 -6.125 6.1875 C-5.40570313 5.66542969 -4.68640625 5.14335937 -3.9453125 4.60546875 C-1.76971345 2.96727223 -1.76971345 2.96727223 0 0 Z " fill="#191919" transform="translate(271,245)"/>
<path d="M0 0 C0.33 1.32 0.66 2.64 1 4 C-2.98196457 5.05404945 -5.98195309 4.84098656 -10 4 C-7.80202597 1.80202597 -6.82453855 1.54102483 -3.875 0.875 C-2.59625 0.58625 -1.3175 0.2975 0 0 Z " fill="#FBE6CC" transform="translate(336,197)"/>
<path d="M0 0 C1.98 0.99 1.98 0.99 4 2 C4 2.66 4 3.32 4 4 C4.66 4 5.32 4 6 4 C7.625 6.5 7.625 6.5 9 9 C5.625 8.4375 5.625 8.4375 2 7 C0.5625 3.375 0.5625 3.375 0 0 Z " fill="#F9E8C5" transform="translate(191,148)"/>
<path d="M0 0 C0 0.33 0 0.66 0 1 C-7.92 1.495 -7.92 1.495 -16 2 C-12.93462333 -1.06537667 -12.54315625 -1.4164482 -8.5625 -1.8125 C-7.80066406 -1.90144531 -7.03882813 -1.99039063 -6.25390625 -2.08203125 C-3.68684495 -1.98860268 -2.19293667 -1.29378268 0 0 Z " fill="#EE6719" transform="translate(240,121)"/>
<path d="M0 0 C-1.31224548 3.93673644 -2.91910327 6.22719294 -6 9 C-6.625 6.6875 -6.625 6.6875 -7 4 C-4.83989616 0.75984424 -3.8842653 0 0 0 Z " fill="#131313" transform="translate(39,86)"/>
<path d="M0 0 C4.59583615 2.0307183 7.59581203 4.31979679 11 8 C11.598125 8.598125 12.19625 9.19625 12.8125 9.8125 C13.204375 10.204375 13.59625 10.59625 14 11 C12.35 10.67 10.7 10.34 9 10 C9 9.34 9 8.68 9 8 C6.66785852 6.79371992 4.50357861 5.8345262 2 5 C2 4.01 2 3.02 2 2 C1.34 2 0.68 2 0 2 C0 1.34 0 0.68 0 0 Z " fill="#C1612D" transform="translate(282,62)"/>
<path d="M0 0 C2.64752004 2.57784846 4.94432065 4.91648098 7 8 C6.67 8.66 6.34 9.32 6 10 C5.34 10 4.68 10 4 10 C2.6273318 8.02678947 1.29572383 6.02456848 0 4 C-0.66 3.34 -1.32 2.68 -2 2 C-1.34 1.34 -0.68 0.68 0 0 Z " fill="#DEDEDE" transform="translate(173,263)"/>
<path d="M0 0 C0.33 1.32 0.66 2.64 1 4 C1.66 4 2.32 4 3 4 C3 4.66 3 5.32 3 6 C2.38125 6.061875 1.7625 6.12375 1.125 6.1875 C-1.27761141 6.828919 -1.27761141 6.828919 -2.25 9.5625 C-2.4975 10.366875 -2.745 11.17125 -3 12 C-3.66 11.34 -4.32 10.68 -5 10 C-3.66511872 6.40608886 -2.03977277 3.24509304 0 0 Z " fill="#1C1C1C" transform="translate(154,244)"/>
<path d="M0 0 C0.66 0 1.32 0 2 0 C2.185625 0.9590625 2.185625 0.9590625 2.375 1.9375 C2.684375 2.9584375 2.684375 2.9584375 3 4 C3.66 4.33 4.32 4.66 5 5 C5 6.65 5 8.3 5 10 C4.01 10 3.02 10 2 10 C0.41727399 8.41727399 0.65264253 6.61965997 0.4375 4.4375 C0.35371094 3.61121094 0.26992188 2.78492188 0.18359375 1.93359375 C0.12300781 1.29550781 0.06242187 0.65742188 0 0 Z " fill="#090311" transform="translate(297,198)"/>
<path d="M0 0 C1.32 0.33 2.64 0.66 4 1 C4 3.64 4 6.28 4 9 C3.01 9.495 3.01 9.495 2 10 C0.68373308 6.38026598 0 3.90432869 0 0 Z " fill="#E9E9E9" transform="translate(360,152)"/>
<path d="M0 0 C1.65 0 3.3 0 5 0 C5 2.31 5 4.62 5 7 C4.38125 6.505 3.7625 6.01 3.125 5.5 C1.16119096 3.80777227 1.16119096 3.80777227 -1 4 C-0.67 2.68 -0.34 1.36 0 0 Z " fill="#F56614" transform="translate(298,81)"/>
<path d="M0 0 C8.57142857 0.85714286 8.57142857 0.85714286 12 3 C12 3.99 12 4.98 12 6 C7.76570244 4.68938409 3.92592596 3.05643741 0 1 C0 0.67 0 0.34 0 0 Z " fill="#DA7B42" transform="translate(236,186)"/>
<path d="M0 0 C0.99386719 0.00902344 1.98773438 0.01804688 3.01171875 0.02734375 C4.15060547 0.04474609 4.15060547 0.04474609 5.3125 0.0625 C5.3125 0.3925 5.3125 0.7225 5.3125 1.0625 C2.3425 1.0625 -0.6275 1.0625 -3.6875 1.0625 C-3.6875 1.7225 -3.6875 2.3825 -3.6875 3.0625 C-4.3475 3.0625 -5.0075 3.0625 -5.6875 3.0625 C-5.6875 3.7225 -5.6875 4.3825 -5.6875 5.0625 C-6.6775 5.0625 -7.6675 5.0625 -8.6875 5.0625 C-8.6875 3.7425 -8.6875 2.4225 -8.6875 1.0625 C-5.53819107 0.01273036 -3.29935544 -0.03881595 0 0 Z " fill="#BF622E" transform="translate(279.6875,156.9375)"/>
<path d="M0 0 C0.66 0.33 1.32 0.66 2 1 C0.90931332 4.77545388 0.0916909 7.47043472 -3 10 C-3.33 8.02 -3.66 6.04 -4 4 C-3.34 4 -2.68 4 -2 4 C-2 3.34 -2 2.68 -2 2 C-1.34 2 -0.68 2 0 2 C0 1.34 0 0.68 0 0 Z " fill="#1C1C1C" transform="translate(296,249)"/>
<path d="M0 0 C1.48280196 0.78483659 2.9611498 1.57809334 4.4375 2.375 C5.67306641 3.03628906 5.67306641 3.03628906 6.93359375 3.7109375 C9 5 9 5 10 7 C7.36 6.67 4.72 6.34 2 6 C2 4.68 2 3.36 2 2 C1.34 2 0.68 2 0 2 C0 1.34 0 0.68 0 0 Z " fill="#FBE1BE" transform="translate(224,179)"/>
<path d="M0 0 C1 2 2 4 3 6 C2.01 6 1.02 6 0 6 C0 6.99 0 7.98 0 9 C-0.99 9.33 -1.98 9.66 -3 10 C-2.39009109 6.44219804 -1.4216319 3.3171411 0 0 Z " fill="#191919" transform="translate(55,162)"/>
<path d="M0 0 C1.0625 1.8125 1.0625 1.8125 2 4 C1.67 4.99 1.34 5.98 1 7 C-1.31 6.67 -3.62 6.34 -6 6 C-4 4 -2 2 0 0 Z " fill="#DEDEDE" transform="translate(133,153)"/>
<path d="M0 0 C-2.17818901 2.50491737 -3.6505228 3.7208769 -7 4 C-9.354248 3.411438 -11.69342986 2.75407101 -14 2 C-14 1.67 -14 1.34 -14 1 C-9.23692563 0.04738513 -4.8333472 -0.08333357 0 0 Z " fill="#C4C4C4" transform="translate(142,36)"/>
<path d="M0 0 C0.99 0 1.98 0 3 0 C3 0.99 3 1.98 3 3 C4.65 3.33 6.3 3.66 8 4 C8 4.99 8 5.98 8 7 C6.68 6.67 5.36 6.34 4 6 C4 5.34 4 4.68 4 4 C2.68 3.67 1.36 3.34 0 3 C0 2.01 0 1.02 0 0 Z " fill="#F7FAE7" transform="translate(208,169)"/>
<path d="M0 0 C0 0.66 0 1.32 0 2 C-2.31 2.33 -4.62 2.66 -7 3 C-7 3.66 -7 4.32 -7 5 C-8.32 5.33 -9.64 5.66 -11 6 C-9.89210592 2.67631776 -9.51563783 2.38436907 -6.625 0.75 C-6.01914063 0.39421875 -5.41328125 0.0384375 -4.7890625 -0.328125 C-3 -1 -3 -1 0 0 Z " fill="#DFDFDF" transform="translate(83,53)"/>
<path d="M0 0 C0.6875 1.625 0.6875 1.625 1 4 C-0.4375 7.25 -0.4375 7.25 -2 10 C-2.99 10 -3.98 10 -5 10 C-3.84414715 6.08788267 -2.64465038 3.1254959 0 0 Z " fill="#DBDBDB" transform="translate(35,92)"/>
<path d="M0 0 C0.99 0.33 1.98 0.66 3 1 C2.67 1.99 2.34 2.98 2 4 C2.66 4.66 3.32 5.32 4 6 C4.66 6.66 5.32 7.32 6 8 C5.01 8.33 4.02 8.66 3 9 C1.35 7.02 -0.3 5.04 -2 3 C-1.34 3 -0.68 3 0 3 C0 2.01 0 1.02 0 0 Z " fill="#0F0F0F" transform="translate(179,264)"/>
<path d="M0 0 C6.75 1.625 6.75 1.625 9 5 C7.68 5.33 6.36 5.66 5 6 C3.35 4.02 1.7 2.04 0 0 Z " fill="#DDDDDD" transform="translate(196,250)"/>
<path d="M0 0 C1.32 0 2.64 0 4 0 C4.33 1.98 4.66 3.96 5 6 C2.525 5.01 2.525 5.01 0 4 C0 2.68 0 1.36 0 0 Z " fill="#E2E2E2" transform="translate(84,250)"/>
<path d="M0 0 C0.5534764 2.07553648 1 3.84365964 1 6 C1.66 6.33 2.32 6.66 3 7 C2.34 8.32 1.68 9.64 1 11 C-1 9 -1 9 -1.23046875 7.08984375 C-1.11111111 1.11111111 -1.11111111 1.11111111 0 0 Z " fill="#3F3F3F" transform="translate(145,195)"/>
<path d="M0 0 C1.62723299 0.45034123 3.25173664 0.91055354 4.875 1.375 C5.77992188 1.63023437 6.68484375 1.88546875 7.6171875 2.1484375 C10 3 10 3 12 5 C9.36 5 6.72 5 4 5 C3.67 4.34 3.34 3.68 3 3 C2.01 2.67 1.02 2.34 0 2 C0 1.34 0 0.68 0 0 Z " fill="#FEE6C6" transform="translate(244,191)"/>
<path d="M0 0 C0.66 0.33 1.32 0.66 2 1 C1.67 3.31 1.34 5.62 1 8 C0.34 7.67 -0.32 7.34 -1 7 C-0.67 6.34 -0.34 5.68 0 5 C-0.99 5.33 -1.98 5.66 -3 6 C-3 3 -3 3 -1.5 1.3125 C-0.7575 0.6628125 -0.7575 0.6628125 0 0 Z " fill="#252525" transform="translate(150,190)"/>
<path d="M0 0 C0.66 0 1.32 0 2 0 C1.67 1.65 1.34 3.3 1 5 C0.34 5 -0.32 5 -1 5 C-1 7.97 -1 10.94 -1 14 C-1.33 14 -1.66 14 -2 14 C-2.05410687 12.22950311 -2.09284119 10.45853151 -2.125 8.6875 C-2.14820313 7.70136719 -2.17140625 6.71523437 -2.1953125 5.69921875 C-2 3 -2 3 0 0 Z " fill="#551604" transform="translate(271,162)"/>
<path d="M0 0 C0.99 0 1.98 0 3 0 C3.33 1.98 3.66 3.96 4 6 C2.02 6.99 2.02 6.99 0 8 C0 5.36 0 2.72 0 0 Z " fill="#1A1A1A" transform="translate(352,126)"/>
<path d="M0 0 C3.5 0.8125 3.5 0.8125 6.5 3.8125 C2.21 3.1525 -2.08 2.4925 -6.5 1.8125 C-3.5 -0.1875 -3.5 -0.1875 0 0 Z " fill="#300500" transform="translate(238.5,124.1875)"/>
<path d="M0 0 C0.99 0.33 1.98 0.66 3 1 C2.67 1.99 2.34 2.98 2 4 C-1.0625 5.1875 -1.0625 5.1875 -4 6 C-4 5.01 -4 4.02 -4 3 C-2.1875 1.25 -2.1875 1.25 0 0 Z " fill="#212121" transform="translate(52,40)"/>
<path d="M0 0 C-0.33 0.99 -0.66 1.98 -1 3 C-4 3 -7 3 -10 3 C-6.84439813 -0.15560187 -4.30999015 -1.43666338 0 0 Z " fill="#151515" transform="translate(262,256)"/>
<path d="M0 0 C0.66 0 1.32 0 2 0 C1.25 2.4375 1.25 2.4375 0 5 C-2.15342034 5.87482701 -3.69010775 6 -6 6 C-5 3 -5 3 -3 1.875 C-2.34 1.58625 -1.68 1.2975 -1 1 C-0.67 0.67 -0.34 0.34 0 0 Z " fill="#181818" transform="translate(359,248)"/>
<path d="M0 0 C0.33 0 0.66 0 1 0 C1.36923077 7.50769231 1.36923077 7.50769231 -0.5 10 C-0.995 10.33 -1.49 10.66 -2 11 C-3.13643966 7.59068103 -2.86747764 6.99664544 -1.5625 3.8125 C-1.13130859 2.73935547 -1.13130859 2.73935547 -0.69140625 1.64453125 C-0.46324219 1.10183594 -0.23507813 0.55914062 0 0 Z " fill="#141414" transform="translate(197,197)"/>
<path d="M0 0 C0.33 0.66 0.66 1.32 1 2 C0.34 2 -0.32 2 -1 2 C-1 2.99 -1 3.98 -1 5 C-3.91517292 3.92598892 -5.77810176 3.22189824 -8 1 C-5.07175348 0.02391783 -3.04386724 -0.08226668 0 0 Z " fill="#DADADA" transform="translate(133,123)"/>
<path d="M0 0 C0.33 0.66 0.66 1.32 1 2 C1.66 2 2.32 2 3 2 C1.25 7.75 1.25 7.75 -1 10 C-1.125 2.25 -1.125 2.25 0 0 Z " fill="#E8E8E8" transform="translate(1,92)"/>
<path d="M0 0 C2.97 0.495 2.97 0.495 6 1 C5.67 1.99 5.34 2.98 5 4 C3.35 4 1.7 4 0 4 C-0.33 3.34 -0.66 2.68 -1 2 C-0.67 1.34 -0.34 0.68 0 0 Z " fill="#080410" transform="translate(280,55)"/>
<path d="M0 0 C3.91211733 1.15585285 6.8745041 2.35534962 10 5 C4.5388601 4.64766839 4.5388601 4.64766839 2 4 C0.5 1.9375 0.5 1.9375 0 0 Z " fill="#FEE6C9" transform="translate(234,186)"/>
<path d="M0 0 C-0.66 0 -1.32 0 -2 0 C-2 0.99 -2 1.98 -2 3 C-3.65 3.66 -5.3 4.32 -7 5 C-6.625 2.5625 -6.625 2.5625 -6 0 C-3.50907189 -1.24546405 -2.58919267 -0.7767578 0 0 Z " fill="#1E0302" transform="translate(280,160)"/>
<path d="M0 0 C2.31 1.98 4.62 3.96 7 6 C5.68 6.33 4.36 6.66 3 7 C1.25 5.8125 1.25 5.8125 0 4 C0 2.68 0 1.36 0 0 Z " fill="#F1FCF0" transform="translate(192,153)"/>
<path d="M0 0 C0.33 0 0.66 0 1 0 C2 5 3 10 4 15 C1.7522025 12.94766315 0.9977758 11.99332739 0 9 C-0.06740865 7.43881572 -0.08514456 5.8749748 -0.0625 4.3125 C-0.05347656 3.50425781 -0.04445312 2.69601563 -0.03515625 1.86328125 C-0.02355469 1.24839844 -0.01195312 0.63351563 0 0 Z " fill="#3F0600" transform="translate(215,138)"/>
<path d="M0 0 C3.82946843 1.45255699 5.12050295 3.42895561 7 7 C5.35 7 3.7 7 2 7 C1.34 4.69 0.68 2.38 0 0 Z " fill="#CB6731" transform="translate(296,74)"/>
<path d="M0 0 C-1.32 1.32 -2.64 2.64 -4 4 C-5.65 3.01 -7.3 2.02 -9 1 C-5.64919071 -1.10976881 -3.77897651 -1.0497157 0 0 Z " fill="#111111" transform="translate(105,19)"/>
<path d="M0 0 C0.33 0 0.66 0 1 0 C1.33 3.3 1.66 6.6 2 10 C0.02 10.99 0.02 10.99 -2 12 C-1.34 8.04 -0.68 4.08 0 0 Z " fill="#E9E9E9" transform="translate(362,240)"/>
<path d="M0 0 C1.98 0.66 3.96 1.32 6 2 C4.93453047 4.13093906 3.70840281 5.36587557 2 7 C0 2.25 0 2.25 0 0 Z " fill="#E7E7E7" transform="translate(193,243)"/>
<path d="M0 0 C0.33 0 0.66 0 1 0 C1.36552803 1.41377782 1.71695495 2.83120576 2.0625 4.25 C2.25972656 5.03890625 2.45695312 5.8278125 2.66015625 6.640625 C3.01497267 9.10394822 2.76877544 10.65604132 2 13 C-0.20914 9.68629 -0.22481553 8.6553979 -0.125 4.8125 C-0.10695313 3.91144531 -0.08890625 3.01039063 -0.0703125 2.08203125 C-0.04710937 1.39496094 -0.02390625 0.70789063 0 0 Z " fill="#4F1507" transform="translate(300,189)"/>
<path d="M0 0 C1.5 1 1.5 1 3 3 C3.27345479 5.71846235 3.13491285 8.25677199 3 11 C2.67 11 2.34 11 2 11 C2 9.02 2 7.04 2 5 C1.01 5 0.02 5 -1 5 C-0.67 3.35 -0.34 1.7 0 0 Z " fill="#272727" transform="translate(75,163)"/>
<path d="M0 0 C2.6875 0.3125 2.6875 0.3125 5 1 C3.35 2.32 1.7 3.64 0 5 C-0.99 4.34 -1.98 3.68 -3 3 C-1.8125 1.4375 -1.8125 1.4375 0 0 Z " fill="#ECECEC" transform="translate(56,157)"/>
<path d="M0 0 C0.99 0 1.98 0 3 0 C2.67 1.65 2.34 3.3 2 5 C0.68 5 -0.64 5 -2 5 C-2 4.01 -2 3.02 -2 2 C-1.34 2 -0.68 2 0 2 C0 1.34 0 0.68 0 0 Z " fill="#141414" transform="translate(28,97)"/>
<path d="M0 0 C0 3 0 3 -1.3125 4.6875 C-3 6 -3 6 -6 6 C-6.33 6.66 -6.66 7.32 -7 8 C-7 7.01 -7 6.02 -7 5 C-5.46875 3.61328125 -5.46875 3.61328125 -3.5 2.3125 C-2.8503125 1.87550781 -2.200625 1.43851563 -1.53125 0.98828125 C-1.0259375 0.66214844 -0.520625 0.33601563 0 0 Z " fill="#DBDBDB" transform="translate(67,60)"/>
<path d="M0 0 C0.66 0 1.32 0 2 0 C2 0.66 2 1.32 2 2 C2.78375 2.103125 3.5675 2.20625 4.375 2.3125 C7 3 7 3 9 6 C8.01 6.495 8.01 6.495 7 7 C7 6.34 7 5.68 7 5 C4.69 4.34 2.38 3.68 0 3 C0 2.01 0 1.02 0 0 Z " fill="#ED6511" transform="translate(268,56)"/>
<path d="M0 0 C-0.99 1.485 -0.99 1.485 -2 3 C-5.3 2.67 -8.6 2.34 -12 2 C-12 1.67 -12 1.34 -12 1 C-10.37681021 0.63762737 -8.7513642 0.28534843 -7.125 -0.0625 C-6.22007812 -0.25972656 -5.31515625 -0.45695312 -4.3828125 -0.66015625 C-2 -1 -2 -1 0 0 Z " fill="#D1D1D1" transform="translate(260,284)"/>
<path d="M0 0 C1.32 0.33 2.64 0.66 4 1 C1.87219421 3.34058637 -0.11562221 4.70700306 -3 6 C-2.67 4.68 -2.34 3.36 -2 2 C-1.34 2 -0.68 2 0 2 C0 1.34 0 0.68 0 0 Z " fill="#151515" transform="translate(155,275)"/>
<path d="M0 0 C2.64 0.99 5.28 1.98 8 3 C5 5 5 5 1 5 C0.34 4.67 -0.32 4.34 -1 4 C-0.67 2.68 -0.34 1.36 0 0 Z " fill="#131313" transform="translate(202,256)"/>
<path d="M0 0 C3.3 0 6.6 0 10 0 C10 0.33 10 0.66 10 1 C6.38026598 2.31626692 3.90432869 3 0 3 C0 2.01 0 1.02 0 0 Z " fill="#FDFCEB" transform="translate(304,204)"/>
<path d="M0 0 C2.64 0.33 5.28 0.66 8 1 C8 1.66 8 2.32 8 3 C5.69 3 3.38 3 1 3 C0.67 2.01 0.34 1.02 0 0 Z " fill="#EFFEF4" transform="translate(255,199)"/>
<path d="M0 0 C2.93200474 2.85276137 5.64315404 5.65079784 8 9 C5.6875 8.875 5.6875 8.875 3 8 C0 3.13793103 0 3.13793103 0 0 Z " fill="#FCD7AD" transform="translate(200,157)"/>
<path d="M0 0 C0.66666667 2 1.33333333 4 2 6 C0.35 6.66 -1.3 7.32 -3 8 C-1.125 1.125 -1.125 1.125 0 0 Z " fill="#2D2D2D" transform="translate(103,130)"/>
<path d="M0 0 C0.33 0.66 0.66 1.32 1 2 C1.66 2 2.32 2 3 2 C3.33 4.31 3.66 6.62 4 9 C3.01 8.34 2.02 7.68 1 7 C0.3125 3.375 0.3125 3.375 0 0 Z " fill="#DC6E26" transform="translate(185,131)"/>
<path d="M0 0 C0.66 0 1.32 0 2 0 C4.09350689 3.4019487 4.17942163 6.05272412 4 10 C1.04816899 7.04816899 0.91336012 4.04488053 0 0 Z " fill="#3B0600" transform="translate(326,120)"/>
<path d="M0 0 C0.763125 0.20625 1.52625 0.4125 2.3125 0.625 C1.755625 0.893125 1.19875 1.16125 0.625 1.4375 C-1.88462523 2.72622647 -4.28084236 4.15426478 -6.6875 5.625 C-6.375 3.75 -6.375 3.75 -5.6875 1.625 C-2.6875 -0.375 -2.6875 -0.375 0 0 Z " fill="#DADADA" transform="translate(112.6875,122.375)"/>
<path d="M0 0 C0.66 0.33 1.32 0.66 2 1 C0.7260411 3.03833424 -0.61061923 5.03852126 -2 7 C-2.66 7 -3.32 7 -4 7 C-4 5.68 -4 4.36 -4 3 C-2 1.25 -2 1.25 0 0 Z " fill="#E7E7E7" transform="translate(12,78)"/>
<path d="M0 0 C2.96175123 0.61277612 4.38058783 1.25372522 7 3 C6.67 3.66 6.34 4.32 6 5 C4.02 4.34 2.04 3.68 0 3 C0 2.01 0 1.02 0 0 Z " fill="#F3670F" transform="translate(291,74)"/>
<path d="M0 0 C0.99 0 1.98 0 3 0 C2.67 1.65 2.34 3.3 2 5 C0.68 5 -0.64 5 -2 5 C-1.125 1.125 -1.125 1.125 0 0 Z " fill="#111111" transform="translate(26,63)"/>
<path d="M0 0 C0.33 0 0.66 0 1 0 C1.1799928 5.21979128 0.97094808 9.07262981 -1 14 C-1.33 14 -1.66 14 -2 14 C-2.21192221 8.80790596 -1.5912689 4.873261 0 0 Z " fill="#E27017" transform="translate(173,42)"/>
<path d="M0 0 C1.98 0.66 3.96 1.32 6 2 C6 2.99 6 3.98 6 5 C4.35 5 2.7 5 1 5 C0.67 3.35 0.34 1.7 0 0 Z " fill="#191919" transform="translate(263,24)"/>
<path d="M0 0 C0.66 0.33 1.32 0.66 2 1 C0.35 2.65 -1.3 4.3 -3 6 C-3.99 5.34 -4.98 4.68 -6 4 C-4.02 2.68 -2.04 1.36 0 0 Z " fill="#D3D3D3" transform="translate(280,272)"/>
<path d="M0 0 C1.32 0.66 2.64 1.32 4 2 C2.02 2.99 0.04 3.98 -2 5 C-2.66 4.34 -3.32 3.68 -4 3 C-2.68 2.01 -1.36 1.02 0 0 Z " fill="#DFDFDF" transform="translate(162,274)"/>
<path d="M0 0 C0.33 0 0.66 0 1 0 C1 1.98 1 3.96 1 6 C-0.98 6.99 -0.98 6.99 -3 8 C-3 4.41465407 -1.97637955 2.92504174 0 0 Z " fill="#E9E9E9" transform="translate(294,257)"/>
<path d="M0 0 C3.375 0.3125 3.375 0.3125 7 1 C7.66 1.99 8.32 2.98 9 4 C2.25 3.125 2.25 3.125 0 2 C0 1.34 0 0.68 0 0 Z " fill="#F5F5F5" transform="translate(196,248)"/>
<path d="M0 0 C2.64 0 5.28 0 8 0 C8 0.66 8 1.32 8 2 C8.99 2 9.98 2 11 2 C10.67 2.66 10.34 3.32 10 4 C6.7 3.01 3.4 2.02 0 1 C0 0.67 0 0.34 0 0 Z " fill="#D79B6B" transform="translate(266,198)"/>
<path d="M0 0 C0.33 0 0.66 0 1 0 C1 1.65 1 3.3 1 5 C-1.31 5.66 -3.62 6.32 -6 7 C-6 6.34 -6 5.68 -6 5 C-5.195625 4.731875 -4.39125 4.46375 -3.5625 4.1875 C-2.716875 3.795625 -1.87125 3.40375 -1 3 C-0.67 2.01 -0.34 1.02 0 0 Z " fill="#CB7A47" transform="translate(336,192)"/>
<path d="M0 0 C2.9375 0.75 2.9375 0.75 6 2 C6.875 4.125 6.875 4.125 7 6 C2.32307692 4.52307692 2.32307692 4.52307692 0.6875 1.875 C0.460625 1.25625 0.23375 0.6375 0 0 Z " fill="#3A1004" transform="translate(219,153)"/>
<path d="M0 0 C2.15377564 2.62198774 3.40072174 4.64404172 4 8 C2.68 7.67 1.36 7.34 0 7 C0 4.69 0 2.38 0 0 Z " fill="#F8DEBF" transform="translate(178,122)"/>
<path d="M0 0 C-2.63548461 2.63548461 -4.32354922 2.64649512 -8 3 C-11.375 2.5625 -11.375 2.5625 -14 2 C-14 1.67 -14 1.34 -14 1 C-9.23692563 0.04738513 -4.8333472 -0.08333357 0 0 Z " fill="#3E3E3E" transform="translate(138,11)"/>
<path d="M0 0 C0.66 0 1.32 0 2 0 C1.8125 2.375 1.8125 2.375 1 5 C-1.5625 6.3125 -1.5625 6.3125 -4 7 C-2.68 4.69 -1.36 2.38 0 0 Z " fill="#B9602B" transform="translate(249,150)"/>
<path d="M0 0 C2.0625 0.4375 2.0625 0.4375 4 1 C4.33 2.32 4.66 3.64 5 5 C3.35 4.67 1.7 4.34 0 4 C-0.33 3.01 -0.66 2.02 -1 1 C-0.67 0.67 -0.34 0.34 0 0 Z " fill="#1F1F1F" transform="translate(316,59)"/>
<path d="M0 0 C1.32 1.32 2.64 2.64 4 4 C3.01 4.66 2.02 5.32 1 6 C0.34 5.67 -0.32 5.34 -1 5 C-0.67 3.35 -0.34 1.7 0 0 Z " fill="#0F0F0F" transform="translate(308,50)"/>
</svg>
